<svg xmlns="http://www.w3.org/2000/svg" version="1.1" xmlns:xlink="http://www.w3.org/1999/xlink" xmlns:svgjs="http://svgjs.dev/svgjs" viewBox="0 0 11.81363613877127 11.800013887378162"><g transform="matrix(1,0,0,1,3.804751880756359,3.181039401286348)"><g><path d=" M 0.758076234449549 -1.4379382972621635 L 0.8203384116598372 -1.2797503669734254 L 0.34949668974159326 -1.0944288277475087 L 0.08946053786333058 -1.7550960660122383 L 0.5519276046486414 -1.9371213723270222 L 0.6141897818589297 -1.778933442038284 L 0.33317357628717137 -1.6683265154647131 L 0.36979838641087037 -1.5752747917654555 L 0.6098718335549552 -1.6697668018845988 L 0.6677390335503997 -1.5227450784397716 L 0.4276655864063147 -1.4282530683206285 L 0.4686853737448575 -1.3240351377774597 L 0.758076234449549 -1.4379382972621635 Z M 1.3509238677925022 -1.961835950846242 L 1.1520032873585593 -1.9165965578372357 L 1.271754621794164 -1.3900420802179756 L 1.0816099493205422 -1.3467985427828961 L 0.9618586148849377 -1.8733530204021565 L 0.7619629335665149 -1.827891865662714 L 0.7242634393923431 -1.993659016024333 L 1.3132243736183304 -2.127603101207861 L 1.3509238677925022 -1.961835950846242 Z M 1.7760471478241433 -2.1776849616477856 L 1.955020031808921 -2.180800535137735 L 2.0238219762408174 -1.9629650640996366 L 2.0860001871273894 -2.1830806475801 L 2.264973071112167 -2.1861962210700496 L 2.150891693094958 -1.8451589222452809 L 2.204407755884155 -1.7010685650955304 L 2.3489603462782083 -2.1876582779033216 L 2.5609282312210735 -2.1913482308634853 L 2.305326690829697 -1.4767911284919846 L 2.1363522919837337 -1.4738496093869486 L 2.0279470651632643 -1.7260009663097353 L 1.9293836496102756 -1.4702466836192418 L 1.7604092507643123 -1.4673051645142057 L 1.480091987715237 -2.17253295185435 L 1.6910600241442206 -2.176205499376022 L 1.8534609275117697 -1.6949592561850708 L 1.8999297161107163 -1.8407901571839553 L 1.7760471478241433 -2.1776849616477856 Z M 3.4056262518458933 -2.0176319178119773 L 3.261904218706901 -1.3223305607081712 L 3.0709411699248697 -1.3618035134716975 L 3.127215430787743 -1.6340482701968497 L 2.8941425815050583 -1.6822255151082302 L 2.8378683206421855 -1.4099807583830781 L 2.6469052718601542 -1.4494537111466042 L 2.7906273049991466 -2.14475506825041 L 2.981590353781178 -2.105282115486884 L 2.9285548992989017 -1.848706121738719 L 3.1616277485815862 -1.8005288768273384 L 3.2146632030638624 -2.0571048705755035 L 3.4056262518458933 -2.0176319178119773 Z M 3.9758434170898154 -1.5638103981719857 Q 3.9758434170898154 -1.5638103981719857 3.9636501664921875 -1.5793128057225392 Q 3.95145691589456 -1.5948152132730924 3.929928493995237 -1.6166504382667752 Q 3.9084000720959144 -1.6384856632604583 3.8813046380261964 -1.6598125817573615 Q 3.854209203956478 -1.6811395002542646 3.8244048370122963 -1.692788522146964 Q 3.8011201753371546 -1.7018893205006358 3.783305736391889 -1.7002627397109402 Q 3.7654912974466237 -1.6986361589212446 3.7585746906978335 -1.680939816048137 Q 3.75202211588319 -1.664174859642035 3.762919948079665 -1.648105097558623 Q 3.7738177802761403 -1.6320353354752108 3.7980173936454857 -1.6129139152148273 Q 3.8222170070148307 -1.593792494954444 3.855671437018154 -1.566759161583349 Q 3.9098623051575907 -1.5241053245895428 3.945104025286044 -1.482415743608346 Q 3.9803457454144975 -1.4407261626271493 3.9898185002236968 -1.3935401804256016 Q 3.9992912550328965 -1.3463541982240537 3.9749011154450566 -1.283951304934674 Q 3.9516030716596573 -1.2243425710463116 3.9143457937831387 -1.192199994216943 Q 3.8770885159066197 -1.1600574173875744 3.83129961340558 -1.1500386146771548 Q 3.785510710904541 -1.140019811966735 3.73661779324558 -1.1467824004352194 Q 3.6877248755866194 -1.1535449889037035 3.641155552236336 -1.1717465856110467 Q 3.5936548424190473 -1.1903122142525366 3.545785228808775 -1.220295544501247 Q 3.4979156151985022 -1.2502788747499574 3.456218109695925 -1.286439184965199 Q 3.4145206041933474 -1.3225994951804407 3.3835717844657753 -1.3615375300238974 L 3.5240577084333644 -1.4902259334135297 Q 3.5240577084333644 -1.4902259334135297 3.5383170545637155 -1.4717686571265245 Q 3.5525764006940665 -1.4533113808395193 3.5778516750930502 -1.4273275300075878 Q 3.6031269494920344 -1.4013436791756564 3.6364797181960014 -1.3754237482386404 Q 3.6698324868999688 -1.3495038173016245 3.708019332047201 -1.3345785080016033 Q 3.7378236989913822 -1.3229294861089036 3.7525603012692015 -1.326295871901616 Q 3.7672969035470203 -1.3296622576943282 3.7723933506250766 -1.3427016682324076 Q 3.7800380212421607 -1.3622607840395267 3.763733886210725 -1.3809804309613227 Q 3.7474297511792893 -1.3997000778831188 3.71818786690913 -1.4224027694488919 Q 3.688945982638971 -1.445105461014665 3.6539928116357836 -1.4737982447210594 Q 3.6038915212985163 -1.5159273404452838 3.5762829088731816 -1.5551703591868085 Q 3.548674296447847 -1.5944133779283332 3.5442651191711 -1.6353255907228303 Q 3.5398559418943525 -1.6762378035173273 3.5587856024699898 -1.724669899801622 Q 3.5875441252675917 -1.7982494306950696 3.641299117056585 -1.8341437318829357 Q 3.695054108845578 -1.8700380330708022 3.76141386828846 -1.8736272288975728 Q 3.827773627731341 -1.8772164247243435 3.8929706804217377 -1.851734189334063 Q 3.941402776706032 -1.8328045287584263 3.9820246211789714 -1.8035066491147325 Q 4.02264646565191 -1.774208769471039 4.055677815685008 -1.7419724558636953 Q 4.088709165718105 -1.7097361422563515 4.112689021715936 -1.6831849368915615 L 3.9758434170898154 -1.5638103981719857 Z" fill="#ffffff" fill-rule="nonzero"></path></g><g><path d=" M -2.163360271921002 0.41351523542492596 L -2.2162445115455887 0.38115388194072586 L -1.9672708726429524 -0.025713574525848437 L -1.3616610317807558 0.34487611859966866 L -1.6059370548550402 0.7440668306046094 L -1.6588212944796266 0.7117054771204094 L -1.4510822834036323 0.37222277759484 L -1.6694430147567625 0.2386017051439494 L -1.8505622028054307 0.5345828527202623 L -1.9008875276094723 0.5037873711788461 L -1.719768339560804 0.2078062236025332 L -1.9509236450166565 0.06635579143772313 L -2.163360271921002 0.41351523542492596 Z M -1.6748925298535249 0.8823209750671986 L -2.0495937948051295 0.9766817828406982 L -1.8540492452368698 1.3092540744317844 L -1.8846181016413714 1.3821001108244457 L -2.111324989734203 0.9919873234266672 L -2.536214747053443 1.0999905369214402 L -2.505645890648941 1.0271445005287787 L -2.143648170907047 0.937213132799443 L -2.3326803360563813 0.6149650287880233 L -2.3017245321024555 0.5411968906688724 L -2.081143080879125 0.9200633887604951 L -1.6439367258995992 0.8085528369480478 L -1.6748925298535249 0.8823209750671986 Z M -2.602314345323856 1.3187332268109768 L -1.9133352429684605 1.4902202424056081 L -1.9843453592851108 1.7755158143668566 Q -1.9954557856475796 1.820153897054671 -2.0231921983872216 1.8529249423284522 Q -2.0509286111268636 1.8856959876022334 -2.08922925515954 1.9050172366995934 Q -2.127529899192216 1.9243384857969534 -2.169724922843698 1.930324300616247 Q -2.21191994649518 1.9363101154355404 -2.251706063673449 1.92640734411247 Q -2.3079888635841717 1.912398545655444 -2.3518050676315516 1.8752146746509566 Q -2.3956212716789316 1.838030803646469 -2.415563424577551 1.7856637287065023 Q -2.43550557747617 1.7332966537665355 -2.420530654987625 1.673132281448177 L -2.3649785231752793 1.4499418680091052 L -2.6192215158754397 1.3866607439446075 L -2.602314345323856 1.3187332268109768 Z M -2.304814150856921 1.4649167904976506 L -2.359641689645627 1.6851960246309954 Q -2.369785991976577 1.7259525349111735 -2.3549544118769425 1.7615899342515875 Q -2.340122831777308 1.797227333592001 -2.3083243141406307 1.8226606636160054 Q -2.2765257965039534 1.8480939936400098 -2.234798893121866 1.8584798269788396 Q -2.1921015966378694 1.869107191325549 -2.1513664317096413 1.8586359765789202 Q -2.1106312667814127 1.8481647618322912 -2.081918057334277 1.8218199026896635 Q -2.0532048478871405 1.7954750435470355 -2.04378513857983 1.7576297125725842 L -1.9904067858384025 1.5431728370506934 L -2.304814150856921 1.4649167904976506 Z M -2.7580135673784545 2.043029911812111 L -2.0515520094943143 2.1138258667241923 L -2.0585318923729705 2.183477006233896 L -2.703302440977087 2.118863233300053 L -2.7441846121235 2.5268199075711766 L -2.8058756214035236 2.5206377255929384 L -2.7580135673784545 2.043029911812111 Z M -2.7975240337764733 3.0113084224049422 Q -2.8019895804032346 2.936441481146973 -2.7756747818231466 2.8737634836064534 Q -2.749359983243058 2.8110854860659336 -2.7005711376002863 2.7640972051775488 Q -2.651782291957514 2.717108924289164 -2.5888256973962243 2.6893111329875987 Q -2.5258691028349345 2.6615133416860335 -2.4579897427610424 2.657464579411103 Q -2.3871157050368312 2.6532371952711022 -2.321241620012724 2.674352472258077 Q -2.2553675349886166 2.695467749245052 -2.202248029588015 2.7378802255462005 Q -2.1491285241874136 2.780292701847349 -2.1160488827028465 2.8394280323973042 Q -2.0829692412182794 2.89856336294726 -2.078741857078278 2.9694374006714708 Q -2.0742763104515167 3.0443043419294398 -2.1015893349150447 3.10704188009165 Q -2.1289023593785723 3.1697794182538597 -2.1782200882739096 3.21629835651137 Q -2.2275378171692464 3.26281729476888 -2.2899952987888166 3.2905853157596 Q -2.3524527804083863 3.31835333675032 -2.4193339145988393 3.32234255840356 Q -2.49020795232305 3.3265699425435615 -2.5560820373471573 3.3054546655565864 Q -2.621956122371265 3.2843393885696117 -2.675045857461021 3.242426025210183 Q -2.7281355925507773 3.200512661850754 -2.760716121093625 3.1413475609899537 Q -2.7932966496364724 3.082182460129153 -2.7975240337764733 3.0113084224049422 Z M -2.4538218992427314 2.7273403912518743 Q -2.511719000482228 2.7307937473099035 -2.5639928134341328 2.752945462355679 Q -2.6162666263860377 2.775097177401454 -2.6556090787896256 2.8125060191219813 Q -2.694951531193213 2.8499148608425084 -2.7165203451855104 2.8997875614207373 Q -2.7380891591778083 2.9496602619989662 -2.734635803119779 3.0075573632384627 Q -2.7310038251966797 3.0684491421282774 -2.7026613450169976 3.115344811621999 Q -2.6743188648373155 3.16224048111572 -2.629840113342823 3.194148797672554 Q -2.5853613618483298 3.2260571142293886 -2.5313836588356087 3.2408695271817227 Q -2.4774059558228876 3.2556819401340573 -2.4225035322337103 3.2524072059410987 Q -2.364606430994214 3.24895384988307 -2.312831730984029 3.2268319051481393 Q -2.261057030973843 3.204709960413209 -2.221245235939381 3.166772235440117 Q -2.181433440904919 3.1288345104670254 -2.1603339695434958 3.0794906931413615 Q -2.1392344981820735 3.030146875815697 -2.142687854240102 2.972249774576201 Q -2.1462602915415117 2.9123562215698255 -2.1741036587794738 2.8654307817652596 Q -2.201947026017436 2.818505341960693 -2.246425777511929 2.786597025403859 Q -2.2909045290064216 2.7546887088470244 -2.3449120023299876 2.7393771829529703 Q -2.398919475653554 2.724065657058916 -2.4538218992427314 2.7273403912518743 Z M -2.725377305044343 3.6108827063143782 L -2.0342112895634306 3.448434132777277 L -1.9655710472238104 3.7404761111494933 Q -1.9550462100650685 3.7852558811665666 -1.9648477713322903 3.82659508044189 Q -1.9746493325995123 3.8679342797172134 -1.9997663905675716 3.903114293916033 Q -2.0248834485356313 3.9382943081148523 -2.0597892298337594 3.9624207755721335 Q -2.094695011131887 3.9865472430294147 -2.134607414842757 3.9959280761491627 Q -2.184254551166034 4.007596917346898 -2.2325224636739414 3.9989102251036472 Q -2.2807903761818493 3.990223532860396 -2.3190904759571667 3.962758057128111 Q -2.3573905757324845 3.935292581395826 -2.378107747119231 3.890853872934259 L -2.6050280801422088 4.122929641726998 L -2.623103343958309 4.046025254088981 L -2.4062630844156283 3.823509407818512 L -2.4543112540533625 3.6190800229579603 L -2.7093612484984315 3.679025834601229 L -2.725377305044343 3.6108827063143782 Z M -2.393955911856438 3.6048943728744387 L -2.3408741244471316 3.8307401694822865 Q -2.3312644905195845 3.871626046454397 -2.301781780469287 3.896541298973488 Q -2.27229907041899 3.9214565514925797 -2.231904209389884 3.9294255666412194 Q -2.191509348360779 3.9373945817898592 -2.1506234713886685 3.927784947862312 Q -2.1087641211553176 3.9179465131269664 -2.0776939628721065 3.8906125550481185 Q -2.0466238045888954 3.8632785969692707 -2.032156682464438 3.826492697803476 Q -2.0176895603399805 3.789706798637681 -2.02684159265193 3.750767868188052 L -2.078550575214444 3.530762911147649 L -2.393955911856438 3.6048943728744387 Z M -2.2859673586778104 4.782071433894582 L -2.343424785578667 4.805366156342652 L -2.52264385989689 4.363314662282832 L -1.864663648612881 4.09655251811944 L -1.6888260662629264 4.5302634179517165 L -1.7462834931637836 4.553558140399788 L -1.8958205824272063 4.184718529003963 L -2.1330641515662294 4.2809031894347065 L -2.0026888501229942 4.6024794335411165 L -2.0573660789480033 4.624646991999764 L -2.1877413803912384 4.303070747893354 L -2.4388859399095013 4.404891228271213 L -2.2859673586778104 4.782071433894582 Z M -1.2675079812460948 5.335227351071476 L -1.4087047409738105 5.125292896914008 L -1.9464024733613157 5.486935190603967 L -1.9854687705191816 5.428850559018898 L -1.4477710381316764 5.067208265328938 L -1.588967797859392 4.857273811171471 L -1.5375214098840442 4.822672233688789 L -1.216061593270747 5.300625773588794 L -1.2675079812460948 5.335227351071476 Z M -0.7537052751901572 5.804219983875922 L -1.2699617667030274 6.291640987701999 L -1.317330850173449 6.241469582188778 L -1.0759264062547549 6.013548774765879 L -1.3649464662699367 5.707430488953317 L -1.6063509101886309 5.935351296376216 L -1.6544065021151455 5.884452769043961 L -1.1381500106022753 5.397031765217883 L -1.0900944186757606 5.447930292550138 L -1.3198649134899394 5.664866964675547 L -1.0308448534747578 5.970985250488108 L -0.801074358660579 5.754048578362699 L -0.7537052751901572 5.804219983875922 Z M -0.6167288551383422 6.735594539510659 L -0.6542331239178981 6.784964872943914 L -1.034066173073751 6.496423966365717 L -0.6045818047917393 5.931054018984889 L -0.23191541694071383 6.21415075751444 L -0.26941968572026986 6.2635210909476955 L -0.5863453745337488 6.022767881685384 L -0.7412017101396571 6.226619581022698 L -0.4648871020535337 6.436522504676019 L -0.5005766481502079 6.483503951007665 L -0.7768912562363314 6.273601027354344 L -0.9408212052566485 6.489397162199703 L -0.6167288551383422 6.735594539510659 Z M 0.34568106676659704 6.538048180845745 L 0.40659197546997805 6.5634619802651235 L 0.4018467242071727 6.834536661101333 L 0.5920933792484566 6.640858551224138 L 0.6539271805079496 6.666657408210477 L 0.42281606076111955 6.898546714409289 L 0.4247259693980814 7.2471630540277845 L 0.9041105659368345 6.765623430942231 L 0.9742504002013339 6.794887806031212 L 0.4230688682698779 7.334239193215572 L 0.3658495297909442 7.310365624064035 L 0.36349374493333664 6.929056759391701 L 0.0899046555135058 7.1952334115429135 L 0.03360820959068389 7.171744899958337 L 0.03013131529892743 6.4009739150308524 L 0.09934825700731498 6.4298532325528726 L 0.0952533268661565 7.109697502622967 L 0.3434473009355018 6.865431763650705 L 0.34568106676659704 6.538048180845745 Z M 1.22483547035543 7.551699057447609 Q 1.1510502323877805 7.538255149605863 1.0964158019774568 7.4978066760408515 Q 1.0417813715671331 7.457358202475839 1.0077255153441103 7.398805246470896 Q 0.9736696591210872 7.340252290465953 0.9616201437153399 7.272494935304416 Q 0.9495706283095926 7.204737580142879 0.9617597714194412 7.137838964385543 Q 0.9744866708429597 7.067988939109502 1.01064351090941 7.009014937071238 Q 1.0468003509758605 6.950040935032975 1.1006156266230094 6.908514845558749 Q 1.1544309022701582 6.866988756084524 1.2197308329015997 6.848900940861867 Q 1.285030763533041 6.830813125639211 1.3548807888090826 6.84354002506273 Q 1.4286660267767322 6.856983932904474 1.4831212050824991 6.898416209642388 Q 1.5375763833882663 6.939848486380303 1.5710507119725599 6.998803717919419 Q 1.6045250405568536 7.057758949458534 1.6166641820148793 7.1250244030336205 Q 1.6288033234729047 7.192289856608706 1.6167934324676128 7.258204669193139 Q 1.6040665330440942 7.328054694469182 1.567909692977644 7.3870286965074445 Q 1.5317528529111935 7.446002698545708 1.4784294788504955 7.487618414072212 Q 1.4251061047897977 7.529234129598716 1.3598958002106345 7.546830043234921 Q 1.2946854956314717 7.564425956871127 1.22483547035543 7.551699057447609 Z M 1.0306259935225808 7.150386611704505 Q 1.0202293714582982 7.207447195732821 1.029331644149658 7.263486455469653 Q 1.038433916841018 7.319525715206485 1.065428065553489 7.366627370541399 Q 1.0924222142659599 7.413729025876313 1.13574499159007 7.446525930683406 Q 1.1790677689141802 7.4793228354905 1.2361283529424958 7.4897194575547825 Q 1.2961403464895174 7.500653835932735 1.3484257290414572 7.48426058209473 Q 1.4007111115933975 7.467867328256723 1.4422705355021717 7.432239891015591 Q 1.4838299594109459 7.396612453774459 1.5110387780646812 7.347697423492672 Q 1.5382475967184168 7.298782393210885 1.5481064624690297 7.2446732187012755 Q 1.5585030845333123 7.18761263467296 1.5493111857896742 7.132065276522579 Q 1.540119287046036 7.076517918372198 1.5127228627993923 7.028834735398555 Q 1.4853264385527485 6.981151552424912 1.4424059367628113 6.948936175256548 Q 1.3994854349728738 6.916720798088183 1.3424248509445582 6.9063241760239 Q 1.2833966605704386 6.895569049750504 1.231200904070777 6.91147040200206 Q 1.1790051475711152 6.927371754253614 1.137445723662341 6.962999191494746 Q 1.095886299753567 6.998626628735878 1.0681855795133803 7.047452032965387 Q 1.0404848592731937 7.096277437194896 1.0306259935225808 7.150386611704505 Z M 1.8243885362053547 7.624021900465659 L 1.8307475044138313 6.914050377428767 L 2.1307354718942078 6.91673726540418 Q 2.1767336269078656 6.917149254893744 2.2145619332169373 6.936488831977719 Q 2.252390239526009 6.955828409061695 2.2805980169059747 6.988582359896401 Q 2.308805794285941 7.0213363107311055 2.3239513990223313 7.060973548994752 Q 2.3390970037587215 7.100610787258398 2.338729795735415 7.141609142814049 Q 2.338273024779595 7.192607097285713 2.3183707736970587 7.2374306446893675 Q 2.298468522614522 7.282254192093022 2.2626923013718847 7.312935000322238 Q 2.226916080129248 7.343615808551452 2.1788284423998734 7.353185505391399 L 2.3503674391876155 7.6287329107158826 L 2.271370607751116 7.628025363549024 L 2.106723854685567 7.3645401709765155 L 1.896732277449303 7.362659349393726 L 1.8943857286174426 7.624648840993255 L 1.8243885362053547 7.624021900465659 Z M 1.8972875676308882 7.300661836114449 L 2.1292782624823796 7.302739696148768 Q 2.1712765779296324 7.303115860465326 2.202481329314053 7.280394428049289 Q 2.2336860806984733 7.257672995633253 2.2510212598526214 7.220326756683479 Q 2.2683564390067694 7.182980517733705 2.2687326033233273 7.140982202286453 Q 2.269117723933136 7.097983926947599 2.2499454107505867 7.061310743185751 Q 2.2307730975680378 7.024637559423903 2.198475917689153 7.001847382332206 Q 2.166178737810268 6.979057205240507 2.1261803421462178 6.978698953510452 L 1.900189406644334 6.976674831235641 L 1.8972875676308882 7.300661836114449 Z M 2.601153551634026 7.605476468471343 L 2.500481063006329 6.902649996265361 L 2.569773813787201 6.892724539640096 L 2.6616551836896623 7.53417743258302 L 3.067512723977624 7.476042615206462 L 3.0763038427028593 7.53741619446952 L 2.601153551634026 7.605476468471343 Z M 3.3037071389841675 7.485451570040983 L 3.0932799625422875 6.807350985013438 L 3.3234521329530455 6.7359242955451375 Q 3.431375183809542 6.702433773097345 3.5175609374018926 6.725423246290932 Q 3.6037466909942433 6.748412719484518 3.663897690902156 6.814033655244978 Q 3.7240486908100685 6.879654591005437 3.753093568685145 6.973251573164168 Q 3.7851022096086986 7.0763992677880765 3.7691768572660327 7.16510458416067 Q 3.7532515049233672 7.2538099005332635 3.693229111978065 7.3185058227008914 Q 3.633206719032763 7.383201744868519 3.5338793093949254 7.414024880572683 L 3.3037071389841675 7.485451570040983 Z M 3.686238581428908 6.993997914503509 Q 3.661046595516852 6.9128168585495064 3.6114010151315963 6.859118009882044 Q 3.56175543474634 6.805419161214581 3.4933370485234905 6.787386567761032 Q 3.424918662300641 6.7693539743074815 3.341827463853604 6.7951387128292335 L 3.178510280699083 6.845819060958194 L 3.352186795339846 7.405490811417547 L 3.515503978494367 7.354810463288587 Q 3.599550248187922 7.328729348461987 3.645295847089921 7.273698991556936 Q 3.69104144599192 7.218668634651883 3.7009396303615945 7.145968731308179 Q 3.710837814731269 7.073268827964474 3.686238581428908 6.993997914503509 Z M 4.512942269823795 6.168827573054458 L 4.879588365498012 6.776833033989517 L 4.82050051084376 6.81246483765363 L 4.649054730894689 6.528158058737519 L 4.288533182931788 6.74556370138378 L 4.459978962880859 7.029870480299891 L 4.40003476250698 7.066018686915659 L 4.033388666832763 6.458013225980601 L 4.093332867206642 6.421865019364833 L 4.256516199929251 6.692470266766915 L 4.6170377478921525 6.475064624120654 L 4.453854415169543 6.204459376718572 L 4.512942269823795 6.168827573054458 Z M 5.452159217480209 6.232801222074828 L 5.4924371169042665 6.279936037423841 L 5.129803134299762 6.58981600557344 L 4.668556221540402 6.050046345931516 L 5.024348053529726 5.746013169633796 L 5.064625952953783 5.793147984982809 L 4.762050847971408 6.051706113543691 L 4.928359593980417 6.24632728659768 L 5.192162512143442 6.020900978530781 L 5.2304914809502066 6.065755077008068 L 4.966688562787181 6.2911813850749665 L 5.142741961882655 6.497206142487588 L 5.452159217480209 6.232801222074828 Z M 5.6744919705287655 6.095668927288841 L 5.13575501956035 5.633216229533431 L 5.331157567907707 5.405580898138327 Q 5.3611192919876345 5.370676813991078 5.400287185766656 5.354218500076364 Q 5.439455079545678 5.337760186161649 5.482678815873147 5.337303439083412 Q 5.525902552200614 5.336846692005174 5.56597033583225 5.350813535415495 Q 5.606038119463886 5.364780378825817 5.637148281421217 5.391485393766621 Q 5.675846287758385 5.424703826985672 5.697290421825072 5.468810505778457 Q 5.71873455589176 5.512917184571243 5.719134238581484 5.560045628782223 Q 5.719533921271207 5.607174072993204 5.695857357915467 5.6501091442946665 L 6.017097771964463 5.696548312909424 L 5.965641767566326 5.756492283510135 L 5.658066159567906 5.712557725763386 L 5.521284375724757 5.871902457739959 L 5.720085898476482 6.042554016629984 L 5.6744919705287655 6.095668927288841 Z M 5.474239740569768 5.831519264414839 L 5.625351044625057 5.655481274802624 Q 5.652707401393687 5.62361232840731 5.655446955982622 5.585109148789852 Q 5.658186510571558 5.5466059691723935 5.640804905220186 5.509281315183252 Q 5.623423299868815 5.47195666119411 5.591554353473501 5.44460030442548 Q 5.558926622640202 5.416592605829025 5.518529825011219 5.407614925654112 Q 5.478133027382237 5.398637245479199 5.439891768123307 5.408642548587617 Q 5.401650508864377 5.418647851696035 5.375596835751397 5.4489992292153815 L 5.228393582663055 5.6204845121996945 L 5.474239740569768 5.831519264414839 Z M 6.141359762575232 5.511160258138238 L 5.5546010895048585 5.111392501088354 L 5.5940148120309034 5.053543054447613 L 6.180773485101277 5.453310811497497 L 6.141359762575232 5.511160258138238 Z M 5.997758970372558 4.478763174459123 L 5.876454990610619 4.700786471646412 L 6.44511545139071 5.011478087795568 L 6.411553085448672 5.0729074585588485 L 5.842892624668581 4.762215842409693 L 5.7215886449066415 4.9842391395969825 L 5.667179773659164 4.954512472619748 L 5.94335009912508 4.449036507481889 L 5.997758970372558 4.478763174459123 Z M 6.036944961196457 4.1894742205426 L 6.05740092996506 4.134133879544933 L 6.825640809542698 4.103597222449962 L 6.799984170748179 4.173007141667373 L 6.559856970270326 4.182330638364922 L 6.449256054385846 4.481543668504845 L 6.6259350805475234 4.643869026088192 L 6.599931730417943 4.71421691718692 L 6.036944961196457 4.1894742205426 Z M 6.502721135436949 4.178269065037626 L 6.12391328418117 4.190703365459433 L 6.402868270939361 4.4484049668567405 L 6.502721135436949 4.178269065037626 Z M 6.934869813692415 3.6183700687949836 Q 6.921647157026567 3.688127945416173 6.880320434582018 3.742380613663838 Q 6.838993712137468 3.796633281911503 6.779522879260496 3.8311618213668472 Q 6.720052046383524 3.865690360822191 6.652608959171279 3.8778427263236686 Q 6.585165871959034 3.8899950918251456 6.518355511251415 3.87733113896208 Q 6.447615129325702 3.8639222476953043 6.388806284906639 3.8278387359746517 Q 6.329997440487577 3.791755224253999 6.289066497702194 3.7392132608085804 Q 6.248135554916812 3.6866712973631617 6.230816977141267 3.622320175664838 Q 6.213498399365723 3.5579690539665147 6.226721056031571 3.4882111773453253 Q 6.246275689128952 3.3850481203703264 6.300814900884686 3.3282108581116354 Q 6.35535411264042 3.271373595852945 6.429478955084095 3.250818602963129 L 6.45479247759687 3.3105783350408013 Q 6.383615151066767 3.3316920317334 6.342542114373665 3.3819215614625056 Q 6.301469077680563 3.4321510911916118 6.288432655615643 3.500926462508277 Q 6.2774448141609245 3.5588942754751813 6.293161303229966 3.6102191424632477 Q 6.308877792299008 3.6615440094513136 6.343811038657474 3.7027710430440752 Q 6.378744285015941 3.743998076636837 6.427557960639472 3.7710623533151573 Q 6.4763716362630035 3.7981266299934777 6.5323744386208595 3.8087420022463414 Q 6.591324756892288 3.8199160783019876 6.64761348270286 3.8102295233611296 Q 6.703902208513431 3.8005429684202716 6.751566858885484 3.7719190080913796 Q 6.799231509257536 3.7432950477624876 6.831352762058827 3.700020053614878 Q 6.863474014860116 3.656745059467269 6.873903152512053 3.6017247624139364 Q 6.886008401572336 3.5378619176198893 6.8648785860291035 3.4748239854273675 Q 6.843748770485872 3.4117860532348456 6.786808843627408 3.3470493192320188 L 6.859514236162169 3.360830679700649 Q 6.960570188620401 3.4827843367707 6.934869813692415 3.6183700687949836 Z M 6.682579711346731 3.3384884790853273 L 6.653154644400196 3.493724317200087 L 6.600099357955911 3.483667648750006 L 6.640512266357165 3.2704639976683416 L 6.9834066176359695 3.3354598733920167 L 6.972418776181251 3.393427686358921 L 6.682579711346731 3.3384884790853273 Z M 6.9559100037871815 2.5813570888967035 L 7.01788986920383 2.582937051850102 L 7.005734347772039 3.0597821454588345 L 6.295964921226545 3.041689021315078 L 6.30789109319736 2.5738410049442457 L 6.369870958614008 2.5754209678976445 L 6.359728615784128 2.9732917168625828 L 6.615645479439968 2.979815434863712 L 6.624488175324311 2.6329281235802102 L 6.6834690149949925 2.634431636713283 L 6.67462631911065 2.981318947996785 L 6.945538311496324 2.9882249150995426 L 6.9559100037871815 2.5813570888967035 Z M 6.322056281595518 1.7131273147492603 Q 6.30815914785434 1.7310401501970556 6.29863479485457 1.753210777160129 Q 6.289110441854798 1.7753814041232026 6.283958869596435 1.801809822601554 Q 6.278807297338073 1.8282382410799052 6.278239362062199 1.857357434913568 Q 6.277671426786326 1.8864766287472305 6.283651890381336 1.9179128189615164 Q 6.301032612704333 2.009274246771785 6.344036828922773 2.045373241043616 Q 6.3870410451412125 2.081472235315447 6.446966282737195 2.0700719765874593 Q 6.488226282393446 2.062222618119009 6.507972190563606 2.037598461066725 Q 6.527718098733768 2.0129743040144406 6.534230675453576 1.966946200159637 Q 6.540743252173384 1.920918096304833 6.543752862141131 1.8511259603019705 Q 6.545267356210126 1.7734747767455368 6.556600815178525 1.7153322560931636 Q 6.567934274146923 1.6571897354407907 6.599166874933968 1.6207099513394956 Q 6.6303994757210125 1.5842301672382004 6.693271856149584 1.572269240048181 Q 6.74140852241521 1.5631116551683224 6.780325136665819 1.5750488715636686 Q 6.819241750916427 1.586986087959015 6.849173136146839 1.6159016923654363 Q 6.8791045213772515 1.644817296771858 6.899185708140681 1.6888399720446337 Q 6.91926689490411 1.7328626473174094 6.929732706195377 1.7878759801924096 Q 6.940011627999301 1.8419069321232135 6.938152166251916 1.89366639890959 Q 6.936292704504532 1.9454258656959666 6.922599160190595 1.9938380216500473 Q 6.908905615876657 2.042250177604128 6.881810972836201 2.087104166484831 L 6.819274126959962 2.063373534216567 Q 6.835370845584354 2.0409705065299537 6.847609940693173 2.011666845480227 Q 6.859849035801994 1.9823631844305005 6.867528460682062 1.9478193509212998 Q 6.87520788556213 1.913275517412099 6.875567386868202 1.8750345608496521 Q 6.8759268881742726 1.8367936042872055 6.868451308680511 1.7974983665193482 Q 6.852565702256266 1.7139959862626513 6.813234642337334 1.6731264655209863 Q 6.773903582418402 1.6322569447793214 6.7139783448224195 1.643657203507309 Q 6.670753583277777 1.6518803409504472 6.649205835952828 1.680410055025779 Q 6.62765808862788 1.7089397691011108 6.619928307969055 1.7592711757073887 Q 6.61219852731023 1.8096025823136663 6.609562696317171 1.8813594802049216 Q 6.606692042329292 1.9572327913603067 6.595593406355714 2.01125889874855 Q 6.584494770382135 2.065285006136793 6.555368309734631 2.0967834075271723 Q 6.526241849087128 2.128281808917551 6.4702461352679315 2.138934509696162 Q 6.405408992950966 2.1512692158608697 6.354636751651348 2.12784530684864 Q 6.303864510351728 2.1044213978364104 6.2701258573845005 2.052817586969799 Q 6.236387204417273 2.0012137761031874 6.222557382353813 1.9285175862326513 Q 6.213773576448642 1.882345681855419 6.215537171181074 1.840783803485695 Q 6.217300765913507 1.799221925115971 6.228535935595672 1.761965771769001 Q 6.239771105277838 1.724709618422031 6.2606887061508205 1.6901921739378485 L 6.322056281595518 1.7131273147492603 Z M 6.812703979371001 1.3318474417904012 L 6.133124966384672 1.537449886105946 L 6.112854302860605 1.4704491383467304 L 6.792433315846933 1.2648466940311855 L 6.812703979371001 1.3318474417904012 Z M 5.916577127211657 0.7957505407446683 L 6.01508592558647 1.0287849086880054 L 6.61194865454806 0.77647778873987 L 6.639204053307889 0.8409537008190541 L 6.042341324346299 1.0932608207671897 L 6.140850122721111 1.3262951887105268 L 6.083742886308119 1.350435684754947 L 5.859469890798666 0.8198910367890888 L 5.916577127211657 0.7957505407446683 Z M 6.101958766391396 -0.032633479391194764 L 6.154843006015983 -0.06499483287539476 L 6.403816644918618 0.34187262359118 L 5.798206804056421 0.7124623167166961 L 5.553930780982137 0.3132716047117548 L 5.6068150206067235 0.2809102512275548 L 5.814554031682717 0.6203929507531245 L 6.032914763035848 0.48677187830223423 L 5.85179557498718 0.1907907307259209 L 5.902120899791221 0.1599952491845048 L 6.083240087839889 0.45597639676081814 L 6.314395393295742 0.31452596459600846 L 6.101958766391396 -0.032633479391194764 Z" fill="#dce2e3" fill-rule="nonzero"></path></g><g clip-path="url(&quot;#SvgjsClipPath1018&quot;)"><g clip-path="url(&quot;#SvgjsClipPath1008&quot;)"><path d=" M 2.1519615335837314 5.438662920276171 L 2.0596403669769776 5.438662920276171 C 1.5805984263667965 5.43915794899029 1.116461393417077 5.272135293903702 0.7475790342909525 4.966509327986961 C 0.7436358762562165 4.963335198861486 0.7390292422997667 4.9595051333134075 0.7344301478424275 4.955652449267996 C 0.5943949993016341 4.837925774230097 0.47063979842193554 4.702097018893634 0.3664196567650684 4.55173886342695 C 0.34901849281828184 4.526775581872439 0.33206215931900945 4.501118666399774 0.3146911533686656 4.473441165165525 C 0.1425795030706698 4.199823244723468 0.03766340246088748 3.889358498135841 0.008519633994743729 3.5674270965687884 C 0.0028725491610594785 3.505610743362681 0 3.44217339784784 0 3.3788943818143173 L 0 2.059791156959185 C 0 0.9240033134741322 0.9239505369803594 0 2.0596403669769776 0 L 2.1519615335837314 0 C 3.2876513635803493 0 4.211609440059819 0.9240033134741322 4.211609440059819 2.059791156959185 L 4.211609440059819 3.3788943818143173 C 4.211609440059819 3.442105542355846 4.208653956408545 3.505942481323538 4.202833463095322 3.5686032584300085 C 4.1751636449264495 3.8738575724313 4.079267321149917 4.1689955273719965 3.922228385204741 4.432215184029899 C 3.910376292603204 4.452134540679555 3.899036885941174 4.470500760512471 3.8875466892969364 4.488309057411218 C 3.691632971432467 4.794306497892651 3.4185131533062942 5.043249033215666 3.0957183347270925 5.210042688751743 C 2.8709894299194567 5.326371926616149 2.6265656574202216 5.399842235471148 2.374942219773584 5.426697735187979 C 2.3008816425690757 5.434656703884511 2.226448540045447 5.438650798008094 2.1519615335837288 5.438662920276171 Z M 2.0596403669769776 0.1198780358552381 C 0.9900644046793899 0.1198780358552381 0.1198780358552381 0.9901171811731626 0.1198780358552381 2.059791156959185 L 0.1198780358552381 3.3788943818143173 C 0.1198780358552381 3.4385393592766307 0.12257717653675854 3.4983049687247108 0.12790006290869552 3.556532520354271 C 0.15533114987666252 3.859665825923891 0.2541169530175024 4.152003183309401 0.41618035089365624 4.409641923693383 C 0.4325486034623185 4.435713511617121 0.44846448608435663 4.459802211274824 0.46485535715034965 4.483310369501027 C 0.5630110771970241 4.624934039716587 0.679562722207094 4.752877169195446 0.811446131255085 4.863776113108755 C 0.8153365127960476 4.867025637225334 0.8193626053209971 4.870388253828569 0.8234037768441673 4.8736302384460375 C 1.170869541533474 5.161787839512172 1.6082196983069386 5.319266543974715 2.059625287978756 5.318762265923601 L 2.1519464545855107 5.318762265923601 C 2.22213751390355 5.318744608001739 2.2922773047363316 5.314969456893011 2.3620647552930336 5.307453017258012 C 2.598974309410242 5.282182010014285 2.8291068253234175 5.213016974790607 3.0406950702194493 5.103494487323679 C 3.344849321771684 4.9464216768666525 3.602163661680615 4.711861186904286 3.7866455727025556 4.423507062557394 C 3.7974421354286374 4.406754295534102 3.8080502106769587 4.389579316560629 3.819201129861229 4.370851200770414 C 3.967082349281021 4.1229999509912565 4.057380462091184 3.845086863543938 4.083422876184929 3.5576483662226073 C 4.088911631537293 3.4984859167033586 4.09171632520636 3.4383961087935315 4.09171632520636 3.3788642238178737 L 4.09171632520636 2.059791156959185 C 4.091686167209919 0.9901171811731626 3.2215374958813188 0.1198780358552381 2.1519615335837314 0.1198780358552381 Z" fill="#9ea2de" transform="matrix(1,0,0,1,0,0)" fill-rule="nonzero"></path></g><g clip-path="url(&quot;#SvgjsClipPath1008&quot;)"><path d=" M 2.4765068122896796 3.8034511162196196 C 3.0252627861964783 3.688835435809656 3.5836345262340354 3.6264115412600018 4.144153541519133 3.6170143822178398 L 4.142132955757553 3.5091241499481245 C 3.4875084059986285 3.5213909150007323 2.8494481357852357 3.6007290641393905 2.2453834670606025 3.744823971137209 C 1.5917088941895876 3.5892991834880363 0.8893517755627688 3.507435302147396 0.1725338976422178 3.507435302147396 C 0.13746014778067267 3.507435302147396 0.10249949040578343 3.5076363554570067 0.06765192551755007 3.508038462076227 L 0.00919064941556794 3.5086567010032796 L 0.014468298792842572 3.5668767131337296 C 0.02616562441046059 3.6952653653009326 0.04996548486494837 3.8222619053671587 0.08555069640562206 3.9461738343793464 L 0.08404279658354333 3.9461738343793464 L 0.10709858486312308 4.016864178038385 C 0.14886711213616494 4.144602497955138 0.20316435222328647 4.267897640201341 0.26919781573655877 4.384950064106851 L 0.26618201609240133 4.384859590117524 L 0.31979539426640113 4.47028211503827 C 0.4036914317621279 4.603918612119543 0.5027211933991041 4.727432586742485 0.6149215474435988 4.838375540605844 L 0.602858348866971 4.837078746758857 L 0.7381621999020718 4.950925183325781 C 1.0609260891021894 5.222191720341906 1.4593279002696438 5.387597593990467 1.8793106272546143 5.424699767923726 C 1.9390988552000246 5.4299874699664805 1.999218821106293 5.432638860486969 2.059670524973419 5.4326539394851885 L 2.151991691580173 5.4326539394851885 C 2.1705137277280366 5.4326539394851885 2.1890709482050825 5.432402622848176 2.20766335301131 5.431899989574149 C 2.2634028699344406 5.43039208975207 2.319247939845117 5.426622340196874 2.374286283350981 5.420718912393438 C 2.374595402814507 5.420718912393438 2.374896982778923 5.420643517402334 2.375213641741559 5.420605819906783 L 2.552075211873142 5.4015384266566 L 2.540909213690651 5.395748091339819 C 2.7331743657501613 5.358941115121558 2.9191254799661586 5.294595005872034 3.0930191940455702 5.204697183882478 L 3.1789694839040434 5.160251836626713 L 3.1765417651904975 5.1587967132984085 C 3.3222407403501437 5.074890034575284 3.4571095022397307 4.973446646302602 3.5781331853055454 4.85673422093965 L 3.578434765269961 4.856425101476123 L 3.629454555749985 4.807214790782593 L 3.628285933387875 4.806536235862657 C 3.7387831565655816 4.692295256252981 3.8356825394588903 4.565645485802429 3.9170487493158994 4.42911644989553 L 3.9460155048980283 4.380471601635276 L 3.896036165295237 4.3538797882729225 C 3.4685088682404404 4.126428179110606 2.9893586207767866 3.9417330694033255 2.4765068122896796 3.8034511162196196 Z M 3.399959742328753 4.8717981401622135 C 3.3947348694452515 4.876163510147131 3.389404443574204 4.8803705506507296 3.3841267941969293 4.884675604642763 C 3.3721314511122946 4.894476953486274 3.3600984105321086 4.904278302329784 3.347884421973273 4.913793150207098 C 3.3412270442587966 4.9189878650941585 3.3344641135567747 4.924039329498122 3.3277388803503043 4.929151109894968 C 3.316663356157138 4.937557651403055 3.3055425949693094 4.94590387691826 3.2942936622966044 4.954031456959263 C 3.287063282649738 4.959309106336537 3.279765047510878 4.964458584228935 3.2724291148764664 4.969615601620443 C 3.2613711828478915 4.977401391035108 3.2502479084936926 4.985076601129488 3.2390592918138705 4.9926412319035816 C 3.231610266692803 4.997662538311103 3.224146162573514 5.002668765720403 3.2166217424613426 5.0075920586394895 C 3.205116466818884 5.015131557749881 3.19350563818888 5.022475029883403 3.1818420330651027 5.029765725523153 C 3.174543797926243 5.034289424989389 3.167275720783825 5.03892621694228 3.1599247091511926 5.043382060916522 C 3.1471075606635255 5.051147745000226 3.1341773196892024 5.058664625613288 3.1211943022211073 5.066128729732576 C 3.114853583469267 5.069777847302006 3.1085731807103105 5.073532517858982 3.1021947644629186 5.077113779936417 C 3.0913303462448436 5.083190616219394 3.080330217042781 5.088965872537955 3.0693150088424974 5.0948391423449495 C 2.349654739757329 4.670976041857803 1.4030329289520196 4.420807921875876 0.3963967052279874 4.38860672117539 C 0.3917222157795442 4.38093151108101 0.3869572523417762 4.373301537981293 0.38238831588087846 4.36555847239492 C 0.3793725162367216 4.360431612999853 0.37644719058188936 4.355236898112793 0.37346908843328436 4.350087420220395 C 0.3671962251734379 4.339223002002319 0.3609836779064747 4.328328425787803 0.3549219206217192 4.317350915083072 C 0.351574383016705 4.311281618299206 0.34829470090368436 4.305182163518898 0.3450150187906637 4.299082708738591 C 0.3394408157817136 4.288728463293652 0.3339646262611986 4.278328980854051 0.3285864502291188 4.267884261419787 C 0.3253796499408319 4.261656635154602 0.32220552081535675 4.255421469390308 0.3190640628526933 4.249178764126904 C 0.31362054449499 4.238306806409718 0.3082876054575725 4.227377045866019 0.30306524574044075 4.216389482495807 C 0.30032086806425795 4.210644384173689 0.2975312533934128 4.204929443848011 0.2948471917101131 4.19916172702856 C 0.2884989334591628 4.18551523363875 0.2823190573550111 4.171793345257837 0.27630756339765833 4.157996061885818 C 0.27495799305689805 4.154912406749668 0.27353302772503396 4.151866449109069 0.27219853638249447 4.148775254473809 C 0.26488522224541394 4.131811381475426 0.2578232247453464 4.114744468655868 0.251012543882292 4.0975745160151344 C 0.24921814309401863 4.093050816548899 0.24754437429151155 4.088527117082663 0.24578767099879015 4.084003417616428 C 0.24194252645249004 4.074111594783593 0.23819036906188484 4.064187100787947 0.23453119882697443 4.05422993562949 C 1.4392300641810132 4.063322571556622 2.5756059885966764 4.336961152269201 3.450172806403966 4.828295230295249 C 3.4336864350159084 4.843127938211762 3.4169487469908377 4.857633934500156 3.399959742328753 4.871813219160434 Z M 2.929216036373187 5.163169622782435 C 2.926351026711238 5.164421179634761 2.92350109604751 5.165725512980859 2.92062854688645 5.166939372337631 C 2.9076053187564326 5.172553786008503 2.8945368536317524 5.1780224360299085 2.88142315151241 5.183345322401846 C 2.8796664482196888 5.184099272312885 2.8778946659287463 5.184725050739047 2.8761455021351354 5.185433763655425 C 2.864946832789833 5.18995746312166 2.8537129791153477 5.19435801743576 2.8424439411116813 5.198635426597721 C 2.8383499930947385 5.2001885634144625 2.8342334265804645 5.201651226241879 2.830139478563521 5.2032119025577295 C 2.8210920796310504 5.206574519160965 2.812044680698579 5.209879332937686 2.8029972817661086 5.213126343887895 C 2.7983077133194447 5.214792573191293 2.79360306587456 5.216413565500027 2.788890878930565 5.218049636806982 C 2.780305902610198 5.221025225789218 2.77169579462613 5.223943011944939 2.7630605549783605 5.226802995274147 C 2.7581900385530473 5.228416448083772 2.7533144957949935 5.230012308728804 2.7484339267041995 5.231590577209246 C 2.739698160401625 5.234405323543793 2.730937262435349 5.237149701219975 2.722151232805372 5.239823710237795 C 2.7175069013533704 5.241241136070548 2.7128625699013686 5.242688719899744 2.7082106989502566 5.244075987736055 C 2.6984093501067465 5.246986234392667 2.688608001263236 5.249783388562623 2.678806652419727 5.252535305737915 C 2.6751726138485177 5.253553138117819 2.671546114776419 5.254623746991495 2.6678969972069893 5.255618960874066 C 2.6543711358029456 5.259338447101859 2.640800037404239 5.262907143347445 2.627183702010871 5.266325049610823 C 2.6259095266612142 5.26664924807257 2.6246278118124473 5.266928209539655 2.6233536364627916 5.267252408001401 C 2.6111295952384754 5.270268207645558 2.598872882851347 5.273188506967649 2.586583499301408 5.276013305967677 C 2.5820597998351724 5.277038677846691 2.5775737978644893 5.2779886547346 2.5730651773964746 5.278976329118062 C 2.5639499229720104 5.280989375380537 2.554819589549325 5.282964724147459 2.545674177128419 5.284842059425947 C 2.540396527751145 5.285920207798734 2.535171654867643 5.286945579677747 2.5299166239877 5.287970951556759 C 2.521371858329255 5.289649746692007 2.512809500506219 5.291275765333481 2.504229550518593 5.292849007481184 C 2.498811163824591 5.293854274029236 2.4933902639642187 5.294821843081737 2.4879668509374766 5.295751714638684 C 2.479341663955188 5.297259614460763 2.4707039111410487 5.298692119291737 2.462053592495058 5.300049229131608 C 2.456775943117784 5.300893653031973 2.451498293740509 5.301753155930558 2.446220644363234 5.302552342836259 C 2.436841507469906 5.303969768669013 2.4274322125801366 5.305281641514221 2.4180229176903665 5.306570895862098 C 2.4134992182241315 5.30718159529004 2.409035834750779 5.307845071211755 2.4045272142827643 5.308425612643255 C 2.395773855815599 5.309556537509813 2.3869827998528814 5.310544211893275 2.3782068228883846 5.311562044273178 C 1.9255126778030982 5.079398248166867 1.3792231907614008 4.922802851644018 0.795794131101911 4.858008396289307 C 0.7819440712361202 4.846178922185101 0.7681769458605439 4.834258974091571 0.7546812424529415 4.822060064530956 C 0.7491774081023551 4.8170839951180975 0.7438017452366454 4.8119722147212505 0.738358226878942 4.806935829315509 C 0.7265111606101456 4.795988476607219 0.714797292158966 4.784915465580423 0.7032166215254034 4.773716796235121 C 0.6970945482477648 4.7677681314370215 0.6910554094603406 4.761751611146928 0.6850162706729164 4.755720011858615 C 0.6741744709521721 4.744908370134312 0.6634633558826748 4.733966043758763 0.6528829254644242 4.722893032731966 C 0.6470548926520909 4.7168011174507685 0.6412268598397576 4.710709202169572 0.6354817615176388 4.7045418918972715 C 0.6242177498467126 4.692478693320643 0.6131346861544359 4.680237059931736 0.6022325704408087 4.66781699173055 C 0.59764855498169 4.6626298163426005 0.5929740655332468 4.657525575444865 0.5884352870687906 4.652300702561363 C 0.5731451828729149 4.634638169312083 0.5581541454750849 4.616719293093051 0.5434621748753004 4.598544073904265 C 0.5419995120478842 4.596727054618661 0.5406122442115721 4.594842179841064 0.5391571208832663 4.593017621056348 C 0.5260534714294045 4.576621723657616 0.5132137044444063 4.560004667618311 0.5006378199282719 4.543166452938435 C 0.49604626497004306 4.537021761163465 0.4915904209958012 4.53076397690184 0.4870667215295658 4.524566508633097 C 0.4809521877510376 4.516175046123229 0.4750035229529381 4.507685570124928 0.4689719236646242 4.499196094126627 C 1.400997264192214 4.539434400878791 2.2753303575270816 4.769351426250204 2.953372591522885 5.152350441559024 C 2.9453555908021674 5.1560246907921545 2.9373034057522682 5.159636110866031 2.9292160363731874 5.163184701780655 Z M 2.0596403669769776 5.324756167716364 C 2.0462803745533624 5.324756167716364 2.032932947961598 5.324607890900526 2.019598087201684 5.324311337268851 C 2.0152854937105396 5.3242208632795265 2.0109729002193952 5.324062533798208 2.0066603067282505 5.3239494413115525 C 1.9976129077957798 5.3237006378409095 1.988565508863309 5.323421676373824 1.9795181099308379 5.323044701418305 C 1.9744666455268751 5.322841134942324 1.9694151811229126 5.322577252473461 1.9643712562180595 5.322328449002818 C 1.955987333207303 5.321921316050856 1.9476134628620274 5.321458893438753 1.9392496451822323 5.320941181166506 C 1.9340674961270223 5.320624522203869 1.9288903734045535 5.320282731577532 1.9237182770148245 5.319915809287493 C 1.915319275005847 5.319327728356882 1.9069278124959805 5.318679331433388 1.8985438894852242 5.317970618517012 C 1.8935753595714757 5.31755594606594 1.8886143691568373 5.31715635261309 1.8836533787421994 5.316711522165575 C 1.8744476503284102 5.315867098265212 1.8652494614137316 5.314932200375522 1.8560588119981636 5.313967144489393 C 1.8520327194732142 5.313537393040099 1.8479915479500437 5.31316041808458 1.8439956134215358 5.3127080481379565 C 1.8308165689765703 5.3112403589778 1.8176576298625655 5.309639472000027 1.8045187960795217 5.307905387204637 C 1.8031089097458783 5.307716899726877 1.8017065629113453 5.3074982542526765 1.800296676577702 5.3073097667749165 C 1.7885752686274121 5.305726471961734 1.7768664265089729 5.304040137327376 1.765170150222384 5.302250762871843 C 1.7607897012392464 5.301579747451017 1.7564167917552187 5.300840876538199 1.7520363427720806 5.300139703120933 C 1.7433056028022464 5.2987373562863995 1.7345824023315224 5.297312390954536 1.7258818203581299 5.2957969516333465 C 1.7208982114461606 5.2949223697365415 1.7159221420333015 5.294010090344184 1.7109460726204426 5.293105350450936 C 1.7027732555847772 5.291597450628859 1.6946130043809626 5.290056879643969 1.6864653190089987 5.288483637496266 C 1.681398775606815 5.287478370948214 1.6763397717037416 5.286473104400162 1.6712883072997788 5.28546783785211 C 1.66305014793849 5.283789042716863 1.6548195280763118 5.282047418422362 1.6465964477132438 5.2802429649686085 C 1.6418239447763654 5.279210053590484 1.6370439023403769 5.278184681711471 1.6322713994034983 5.2771140728377945 C 1.6230531051578587 5.275033171083327 1.6138549162431801 5.272876874337754 1.6046768326594625 5.270645182601079 C 1.6010050965927014 5.269763061205164 1.5973182815277196 5.26892617680391 1.593654084960069 5.268021436910662 C 1.5808419628051422 5.264859873617038 1.5680675381457676 5.261572652004907 1.5553308109819448 5.258159772074269 C 1.553068961248827 5.257564151644549 1.5508975855050342 5.256915754721056 1.548673433267468 5.256312594792224 C 1.5381533188421008 5.253447585130274 1.5276558229140647 5.250502154144481 1.5171809454833596 5.247476301834843 C 1.5128306544966632 5.246209665984298 1.5084954425081876 5.244882714140868 1.5041526910206016 5.243593459792992 C 1.4958089786717674 5.241105425086562 1.487480345321154 5.23857215338547 1.4791667909687616 5.235993644689716 C 1.4743415115381104 5.234485744867637 1.4695237716065697 5.232932608050897 1.4647135711741393 5.2313870107332665 C 1.456812176106448 5.228873844363135 1.4489258600369779 5.226287796168271 1.4410546229657282 5.2236288661486725 C 1.4362393962005577 5.222015413339048 1.4314266826017572 5.220384368364834 1.426616482169327 5.218735731226028 C 1.4185743497849084 5.215961195553404 1.41053221740049 5.213126343887895 1.4024900850160715 5.210231176229505 C 1.3980342410418296 5.208632802418102 1.393563318069367 5.207057047104029 1.3891225530933458 5.205420975797074 C 1.3798539955203037 5.202018148531917 1.370618109110073 5.1985399262756555 1.361414893862654 5.194986309028291 C 1.3583086202291723 5.193787528669739 1.3551872675974699 5.192641524804959 1.3520960729622091 5.191435204947297 C 1.339796636746789 5.186640083513088 1.327549977025142 5.181719303760372 1.3153560937972673 5.176672865689149 C 1.3126720321139678 5.17555701982081 1.3100030494288888 5.174411015956031 1.307318987745589 5.173265012091251 C 1.2978342978647155 5.169289182893705 1.2883747396475433 5.165248011370534 1.2789403130940722 5.161141497521741 C 1.2746804960967006 5.159271701742363 1.27044329759666 5.157371747966544 1.2661985595975094 5.155456715192505 C 1.258349941023591 5.151950848106172 1.2505164014478931 5.148422362522509 1.2427130198686371 5.14481094244863 C 1.238098846413077 5.14267977736676 1.2334922124566272 5.140520967454817 1.228893117999288 5.138334512712803 C 1.221398855883558 5.13481607979462 1.213924699098789 5.131232304550814 1.2064706476449811 5.127583186981384 C 1.2019017111840835 5.125356521577447 1.1973403142222963 5.1231172903416615 1.1927864567596191 5.1208654932740245 C 1.1850710360033176 5.117030401393204 1.177388286409828 5.113134993519502 1.16973820797915 5.109179269652916 C 1.1655990229675446 5.107053130903785 1.1614447589577186 5.104949610651986 1.1573281924434442 5.102793313906415 C 1.14821042485261 5.098028350468646 1.139140407422808 5.093182965707034 1.1301181401540383 5.088257159621578 C 1.1275320919591738 5.086847273287935 1.1249309647660886 5.085490163448064 1.1223449165712238 5.08407273761531 C 1.1107843512686222 5.0777244793643606 1.099289128291644 5.071253075961273 1.087859247640289 5.06465852740605 C 1.0848434479961322 5.062909363612439 1.081827648351975 5.0610998838259444 1.0788118487078184 5.059335641034113 C 1.0704128466988412 5.054434966612358 1.0620414895199357 5.04947900253046 1.0536977771711016 5.044467748788419 C 1.049535973662165 5.041957095584658 1.04540432814967 5.0393936658871255 1.0412576036389543 5.036845315187813 C 1.0340950794840815 5.032442247707344 1.0269501474937994 5.027998969564953 1.0198228076681088 5.023515480760639 C 1.0153895821911982 5.0207107870915735 1.0109638962133978 5.017883474925176 1.0065457497347081 5.015033544261448 C 0.9996747528787705 5.010610371450017 0.9928339140192745 5.006144474810295 0.98602323315622 5.00163585434228 C 0.9816654026704132 4.998755765682111 0.9773151116837169 4.99586059802372 0.972972360196131 4.992950351367108 C 0.9708839189425524 4.991540465033465 0.9688180961863048 4.990092881204269 0.9667371944318365 4.988682994870626 C 1.396624354708186 5.051720746932616 1.8014351409433709 5.166064790440826 2.156296745572207 5.32469585172348 C 2.1548567012421223 5.32469585172348 2.153409117412927 5.324756167716364 2.151969073082842 5.324756167716364 Z M 3.531667252288197 4.750774100442196 C 2.628586048845404 4.235283467266452 1.4477496981757567 3.950169768907855 0.19805510213089622 3.946309545363334 C 0.1651370144444119 3.8382834385654716 0.14175295337284097 3.727579372983251 0.12817148487666943 3.6154687849002074 C 0.14294890313303854 3.6153933899091033 0.15774391355399853 3.6153531792471814 0.1725565161395493 3.615348152914441 C 1.5075982421140508 3.615348152914441 2.791115031168131 3.9016907896280317 3.794531888772026 4.422428914184609 C 3.718974721000397 4.541013016515779 3.6308431237580714 4.651098519452917 3.531667252288197 4.7507741004421975 Z" fill="#9ea2de" transform="matrix(1,0,0,1,0,0)" fill-rule="nonzero"></path></g><g clip-path="url(&quot;#SvgjsClipPath1008&quot;)"><path d=" M 3.1747624434004447 4.136395396934545 L 3.159117982746381 4.029636089531389 C 3.4543705061281735 3.9866591809100833 3.7518006636774985 3.960272237944945 4.050007816127648 3.9505995203571493 L 4.053543841210445 4.058467134129531 C 3.7593901844069557 4.067993845853224 3.4660023393660806 4.09401078834782 3.1747624434004336 4.136395396934546 Z" fill="#9ea2de" transform="matrix(1,0,0,1,0,0)" fill-rule="nonzero"></path></g><g clip-path="url(&quot;#SvgjsClipPath1008&quot;)"><path d=" M 0.23226934909385655 2.8009239195107516 C 0.2396840385106502 2.80092307428969 0.247011973905708 2.7993289269405897 0.25375692155847474 2.796249430062308 C 0.2534503152613188 2.80051176022605 0.2532944989463706 2.8047665508906814 0.2532894726136304 2.809013802056202 C 0.25336647335744705 2.856887943746648 0.2725869458720322 2.9027428874251635 0.30666912631520366 2.936363481529835 C 0.2725200840654762 2.9699406148721534 0.2532865373426891 3.0158255852920663 0.2532865373426891 3.0637169307530314 C 0.2532865373426891 3.111608276213997 0.2725200840654763 3.1574932466339094 0.3066691263152081 3.1910703799762237 C 0.2725200840654762 3.224647513318538 0.2532865373426891 3.2705324837384504 0.2532865373426891 3.318423829199416 C 0.2532865373426891 3.3663151746603814 0.2725200840654763 3.4122001450802935 0.3066691263152081 3.4457772784226077 C 0.28719261239028493 3.4650162187896463 0.2723763948454101 3.4884565323258285 0.26335470392600413 3.514303785836964 C 0.3030979169032523 3.5146908134579635 0.3427908665530978 3.515314078717756 0.3824335528755407 3.516173581616341 C 0.4121449657275078 3.4900305744604876 0.45700788740924136 3.4912911202021135 0.4852044652492985 3.519061209775621 C 0.5249124938973648 3.5203781089535693 0.5645501538870675 3.521951351101271 0.6041174452184065 3.523780936218726 C 0.5956047078519753 3.494242975584061 0.5796522322318743 3.467384665939542 0.5577872231850457 3.4457772784226077 C 0.5919343693063094 3.4121991261514415 0.611166598240936 3.3663145370473115 0.611166598240936 3.318423829199415 C 0.611166598240936 3.270533121351519 0.5919343693063094 3.224648532247389 0.5577872231850456 3.1910703799762232 C 0.5919343693063094 3.157492227705057 0.611166598240936 3.1116076386009275 0.611166598240936 3.063716930753031 C 0.611166598240936 3.0158262229051345 0.5919343693063094 2.969941633801005 0.5577872231850456 2.9363634815298387 C 0.6216099783735515 2.8736367101516187 0.6291244654034891 2.7733468382076634 0.5753617956113701 2.7018096642055336 L 1.2053548017766431 2.071854355535813 L 1.8265265939827569 2.693026147741927 C 1.7655796247092221 2.7643326753778044 1.770190187472099 2.8706390796532766 1.8370818927373063 2.936401179025392 C 1.8029347466160424 2.9699793312965572 1.783702517681416 3.0158639204006876 1.783702517681416 3.0637546282485837 C 1.783702517681416 3.1116453360964798 1.8029347466160424 3.15752992520061 1.8370818927373065 3.1911080774717755 C 1.8029347466160424 3.2246862297429417 1.783702517681416 3.2705708188470717 1.783702517681416 3.3184615266949677 C 1.783702517681416 3.3663522345428643 1.8029347466160424 3.412236823646994 1.8370818927373065 3.44581497591816 C 1.7800689606883284 3.5018780816360158 1.7672631625077788 3.5890024743078714 1.8057326554362954 3.6590998662520486 C 1.954411577893232 3.6861666680583567 2.100964361601038 3.716877561101355 2.245391006559714 3.751232545381043 C 2.408168792353084 3.7124041249625224 2.5733114677007474 3.6783054836525886 2.740819032602704 3.64893662145124 L 2.124691165301443 3.64893662145124 C 2.147535030164713 3.6002430949617343 2.147188754941464 3.5438417865990064 2.123748727912644 3.495432419563652 L 2.62100885223946 3.495432419563652 C 2.649257438383525 3.495090914422093 2.6719779703767257 3.4720940472455264 2.6719779703767257 3.443843396900793 C 2.6719779703767257 3.41559274655606 2.649257438383525 3.3925958793794924 2.62100885223946 3.3922543742379334 L 2.1256637606866837 3.3922543742379334 C 2.148635991790639 3.3416029674655436 2.1466987626774987 3.2831404589489828 2.120423808804961 3.234120919896564 L 3.002349177743993 3.234120919896564 C 3.020928778461585 3.234345533940638 3.038193964532847 3.224562142016497 3.0475492101892527 3.2085081271603233 C 3.0569044558456584 3.19245411230415 3.0569044558456584 3.17260968216326 3.0475492101892527 3.156555667307087 C 3.038193964532847 3.140501652450913 3.020928778461585 3.130718260526772 3.002349177743993 3.1309428745708456 L 2.1284382963593074 3.1309428745708456 C 2.1370807217861136 3.1095964980255157 2.141539544245154 3.0867879062158083 2.1415721038096107 3.0637583979981393 C 2.1415985705488794 3.031746125270072 2.1329790332492804 3.0003208916700785 2.116623901253326 2.9728018807303713 L 2.6154070044004376 2.9728018807303713 C 2.6438967529006203 2.9728018807303656 2.666992257313742 2.949706376317244 2.666992257313742 2.9212166278170613 C 2.666992257313742 2.8927268793168786 2.6438967529006203 2.8696313749037574 2.6154070044004376 2.8696313749037574 L 2.1310017260568404 2.8696313749037574 C 2.1380280144155597 2.850208670903081 2.141600353295672 2.8297059974018643 2.1415570248113895 2.8090514995517544 C 2.1415589836112954 2.8016112025906414 2.1410981846234343 2.7941779861307787 2.1401772964741768 2.7867948981777855 L 2.141489169319396 2.7880992315239745 L 2.141489169319396 2.79070789821617 L 2.1468572926859952 2.7933919598994694 C 2.155979313815441 2.801629115009253 2.1677446906367552 2.8063352657377787 2.1800310887717216 2.8066614783337602 L 3.950411032879386 2.81012210842543 C 3.941297094496309 2.8449799096754345 3.9099213615141317 2.8693811965439266 3.8738926564080147 2.8696313749037565 L 2.9694694221235722 2.8696313749037565 C 2.9409796736233895 2.8696313749037574 2.917884169210268 2.8927268793168786 2.917884169210268 2.9212166278170613 C 2.917884169210268 2.949706376317244 2.9409796736233895 2.9728018807303656 2.9694694221235722 2.9728018807303656 L 3.873922814404457 2.9728018807303656 C 3.9172910267574155 2.9732253683418084 3.95222496310905 3.0085020976832313 3.952224963109051 3.0518723776506045 C 3.952224963109051 3.095242657617978 3.9172910267574155 3.130519386959402 3.873922814404457 3.1309428745708447 L 3.32225766449705 3.1309428745708447 C 3.294009078352985 3.1312843797124037 3.2712885463597847 3.154281246888971 3.2712885463597847 3.182531897233704 C 3.2712885463597847 3.2107825475784373 3.294009078352985 3.2337794147550047 3.32225766449705 3.2341209198965637 L 3.873922814404457 3.2341209198965637 C 3.9021706359407897 3.2341209189800346 3.9282726998347446 3.249190951843158 3.9423966108669966 3.2736542827427217 C 3.956520521899247 3.2981176136422854 3.9565205218983346 3.3282576804972166 3.9423966108646002 3.3527210113959245 C 3.9282726998308664 3.377184342294632 3.9021706359359993 3.3922543751561745 3.873922814399666 3.392254374237933 L 3.7417176975037276 3.392254374237933 C 3.713469111359662 3.392595879379492 3.690748579366462 3.4155927465560594 3.690748579366462 3.4438433969007924 C 3.690748579366462 3.4720940472455246 3.713469111359662 3.495090914422092 3.7417176975037276 3.495432419563651 L 3.873922814404457 3.495432419563651 C 3.8963908268531537 3.4954435788337 3.9177859078619215 3.505043935696609 3.932730907465517 3.521820666450025 C 3.970775219976556 3.5202675296332835 4.00887984848048 3.518943090956225 4.047044792977285 3.5178473504188488 C 4.037855797237038 3.489813984583883 4.0220135213157215 3.464423400297842 4.000872900425243 3.4438471666503467 C 4.036228070592383 3.4095725759541753 4.056183804514418 3.3624330214305607 4.056183804514418 3.3131914168168035 C 4.056183804514418 3.263949812203047 4.036228070592383 3.2168102576794317 4.000872900425243 3.1825356669832594 C 4.036228070592383 3.148261076287088 4.056183804514418 3.101121521763473 4.056183804514418 3.0518799171497157 C 4.056183804514418 3.002638312535959 4.036228070592383 2.9554987580123435 4.000872900425243 2.921224167316172 C 4.032420379781914 2.8907314828682917 4.051820681368474 2.8498196467646064 4.055466413483593 2.8060960159004815 C 4.071265777505991 2.7994380026425607 4.082710495875107 2.7853473277240415 4.085987602070124 2.7685184947567367 C 4.089264708265142 2.751689661789432 4.083943558874777 2.734334141993898 4.071796968556705 2.7222341672955874 L 3.0907347258151225 1.741149306056674 C 3.0810330190464317 1.731520367041842 3.0679275184635553 1.7261026321998094 3.0542586291190434 1.7260703078358894 L 1.204894892330909 1.7260703078358894 L 1.2044274433860647 1.725972294347454 L 1.2038092044590125 1.725972294347454 L 1.2026556610951225 1.725972294347454 L 1.2023314626333754 1.726047689338558 L 1.2010045107899467 1.726047689338558 L 1.199760493436732 1.726138163327883 L 1.199602163955414 1.726198479320766 C 1.1883172532143351 1.7271780099472966 1.1776649799207992 1.731831427196611 1.169278298533416 1.7394453792577254 C 1.1685846646152598 1.7400786971829985 1.1679061096953247 1.7407346336056022 1.1673104892656037 1.741337793534434 L 0.19579325239777848 2.7128851883986997 C 0.18104856988424287 2.727637903540236 0.17664064348387187 2.749819032932776 0.1846243120420927 2.7690884206455384 C 0.19260798060031356 2.7883578083583003 0.2114115385009707 2.8009219846765596 0.23226934909385655 2.8009239195107516 Z M 1.9626371714226698 3.648914002953908 C 1.9319926353057049 3.6489140028021767 1.9043656992204163 3.630453777020602 1.8926392474099087 3.602141625534715 C 1.8809127955994018 3.5738294740488272 1.8873962603323156 3.5412412519674623 1.9090662978187152 3.519573370918268 C 1.9307363353051148 3.497905489869076 1.963325202442277 3.4914252682614646 1.9916361868026669 3.503154537563928 C 2.0199471711630568 3.5148838068663912 2.03840464749401 3.5425125799274535 2.038401597983002 3.573157115892686 C 2.0383517362614723 3.61497876149303 2.004458821778031 3.648868303211574 1.9626371714226725 3.648914002953908 Z M 1.9626371714226698 3.394214644006634 C 1.9319895860146832 3.394217693517636 1.9043580637786475 3.3757583802466824 1.892627627504975 3.3474445785685494 C 1.8808971912313024 3.319130776890417 1.8873780578864676 3.2865386668802667 1.9090480952173103 3.264866473112233 C 1.9307181325481535 3.2431942793441992 1.963309597502508 3.236710169563756 1.9916245663061223 3.248437788345489 C 2.0199395351097365 3.2601654071272224 2.038401597831285 3.287795092387489 2.038401597983002 3.318442677947192 C 2.0383558982303733 3.3602684922499764 2.004462980970911 3.394164782274614 1.9626371714226676 3.394214644006634 Z M 1.9626371714226698 3.13950020606114 C 1.9319933213793514 3.1395002060611406 1.9043668621465824 3.121040796160456 1.892639968431124 3.0927295703080886 C 1.8809130747156657 3.0644183444557216 1.8873951574618542 3.0318307138745806 1.9090636316291485 3.0101622397072867 C 1.9307321057964428 2.9884937655399924 1.9633197363775834 2.9820116827938037 1.9916309622299502 2.993738576509262 C 2.0199421880823176 3.0054654702247205 2.0384015979830026 3.0330919294574894 2.038401597983002 3.0637357795008078 C 2.03835174450388 3.105558649477075 2.0044600413989446 3.1394503525820143 1.9626371714226736 3.13950020606114 Z M 1.9626371714226698 2.884793307614756 C 1.9319888999384272 2.884796357042318 1.904356900776771 2.866336227917931 1.8926269063537255 2.838021500564376 C 1.8808969119306804 2.809706773210821 1.8873791605687262 2.777114071611332 1.909050761274152 2.755442470905906 C 1.9307223619795781 2.73377087020048 1.9633150635790673 2.727288621562434 1.9916297909326222 2.7390186159854792 C 2.0199445182861777 2.750748610408525 2.038404647410564 2.778380609570181 2.038401597983002 2.8090288810544237 C 2.03835174450388 2.8508517510306914 2.004460041398944 2.88474345413563 1.9626371714226731 2.884793307614756 Z M 1.5555871539516979 1.8292106556660563 L 1.761732138628045 2.0353556403424036 C 1.7818960158707555 2.0553913305817955 1.8144683178107064 2.055339397993655 1.8345682037410793 2.0352395120632827 C 1.854668089671452 2.0151396261329104 1.8547200222595934 1.9825673241929593 1.8346843320202013 1.9624034469502483 L 1.7014915407360098 1.8292106556660568 L 1.926078140236377 1.8292106556660568 L 2.2814524308047197 2.1845924857335093 C 2.3016163080474303 2.204628175972901 2.3341886099873816 2.2045762433847607 2.3542884959177544 2.1844763574543884 C 2.374388381848127 2.1643764715240157 2.3744403144362685 2.131804169584065 2.354404624196877 2.111640292341354 L 2.0719749875215796 1.8292106556660563 L 2.2965615870219462 1.8292106556660563 L 2.785573499321993 2.318222567966103 C 2.8057373765647036 2.3382582582054954 2.8383096785046544 2.338206325617355 2.8584095644350276 2.318106439686982 C 2.8785094503654003 2.29800655375661 2.8785613829535412 2.265434251816659 2.85852569271415 2.245270374573948 L 2.4424584343071483 1.8292106556660563 L 2.6670525733066253 1.8292106556660563 L 2.940872101997854 2.103030184357285 C 2.9610359792405645 2.1230658745966773 2.9936082811805154 2.1230139420085363 3.0137081671108885 2.1029140560781645 C 3.033808053041261 2.082814170147792 3.033859985629402 2.050241868207841 3.013824295390011 2.03007799096513 L 2.8129871180873796 1.8292106556660563 L 3.0329143071375237 1.8292106556660563 L 3.910527082585412 2.706846049611276 L 3.690177681585085 2.7064238376610943 L 3.154360558807723 2.1706217938819523 C 3.134215366751025 2.1504745205608895 3.101551869930381 2.1504728330906793 3.0814045962737 2.1706180248117235 C 3.0612573226170183 2.1907632165327673 3.061255634602634 2.223426713353384 3.0814008259880246 2.243573987345684 L 3.543979254335467 2.70615995519223 L 3.318962903385808 2.7057226642438272 L 3.0650853498415676 2.4518451106995864 C 3.0449214725988565 2.4318094204601945 3.0123491706589056 2.431861353048335 2.9922492847285325 2.451961238978707 C 2.9721493987981593 2.4720611249090796 2.9720974662100184 2.5046334268490305 2.99213315644941 2.5247973040917415 L 3.172772015635301 2.7054361632776325 L 2.947755664685642 2.70500641182834 L 2.55664414833404 2.3138722769794065 C 2.536498956277342 2.2937250036583436 2.503835459456698 2.2937233161881334 2.4836881858000166 2.3138685079091776 C 2.4635409121433356 2.3340136996302214 2.4635392241289513 2.366677196450838 2.4836844155143414 2.386824470443138 L 2.8015270794395826 2.704667134368372 L 2.5765107284899234 2.7042373829190796 L 2.0189270717808583 2.146646186710905 C 1.9987735519415013 2.1264926668715476 1.9660982402316183 2.1264926668715476 1.9459447203922613 2.146646186710905 C 1.9257912005529039 2.166799706550262 1.9257912005529039 2.199475018260145 1.9459447203922613 2.219628538099502 L 2.4303123012403063 2.704003658446658 L 2.202830534081549 2.703566367498255 L 1.3285426777413434 1.8292106556660563 Z M 1.2040052314358827 1.8505775961449085 L 1.9848937727965477 2.631458598006463 C 1.9775101708223832 2.630544075330694 1.9700771935649293 2.6300858091176664 1.9626371714226694 2.6300864091683716 C 1.9468042638875533 2.630081779774512 1.931041284404898 2.632186214867098 1.9157641054533603 2.6363441934299967 L 1.241830898472721 1.9624034469502474 C 1.221685646538507 1.942258399854402 1.1890239570147787 1.942258399854402 1.1688787050805651 1.9624034469502474 L 0.49117574854472934 2.640106403486083 C 0.4722356074228305 2.63345797590973 0.4523050674162922 2.6300699370674825 0.43223194449968183 2.630086409168371 C 0.4296006593101551 2.6300864091683716 0.42695429512240746 2.6301467251612545 0.4243154704337701 2.630267357147021 Z M 0.43223194449968205 2.73325691499498 C 0.4740796458190088 2.7332569149949792 0.508003910559125 2.7671811797350956 0.508003910559125 2.8090288810544224 C 0.508003910559125 2.850876582373749 0.4740796458190089 2.8848008471138655 0.4322319444996821 2.8848008471138655 C 0.3903842431803553 2.8848008471138655 0.35645997844023913 2.8508765823737496 0.3564599784402391 2.8090288810544224 C 0.35650568615446 2.767200127119183 0.3904031905644457 2.733302622709199 0.43223194449968383 2.73325691499498 Z M 0.43223194449968205 2.9879713529404746 C 0.4740745001634712 2.9879755167931834 0.5079916072269343 3.0218982495544773 0.5079888313941849 3.0637408053333695 C 0.5079860555614357 3.1055833611122616 0.4740644479322403 3.139501593457116 0.4322218920842889 3.1395002056443295 C 0.3903793362363374 3.139498817831542 0.35645997864741646 3.105578335371773 0.3564599784402391 3.063735779500807 C 0.35650569369508806 3.0219082495287495 0.39040441018570593 2.9880129060447507 0.4322319444996854 2.9879713529404746 Z M 0.43223194449968205 3.2426782513868586 C 0.46287953005938504 3.242678251538576 0.4905092153196517 3.2611403142601243 0.5022368341013851 3.2894552830637385 C 0.5139644528831184 3.317770251867353 0.5074803431026749 3.3503617168217077 0.4858081493346413 3.3720317541525504 C 0.4641359555666075 3.3937017914833927 0.4315438455564572 3.4001826581385584 0.40323004387832456 3.388452221864886 C 0.3749162422001919 3.3767217855912137 0.3564569289292381 3.3490902633551776 0.3564599784402391 3.3184426779471914 C 0.35650569369508806 3.2766151479751335 0.3904044101857062 3.2427198044911347 0.43223194449968577 3.2426782513868586 Z" fill="#9ea2de" transform="matrix(1,0,0,1,0,0)" fill-rule="nonzero"></path></g><g clip-path="url(&quot;#SvgjsClipPath1008&quot;)"><path d=" M 2.7741210001733068 3.4890238453198177 C 2.7555413994557147 3.4892484593638913 2.7382762133844523 3.47946506743975 2.7289209677280466 3.463411052583577 C 2.719565722071641 3.4473570377274037 2.719565722071641 3.4275126075865137 2.7289209677280466 3.4114585927303396 C 2.7382762133844523 3.3954045778741664 2.7555413994557147 3.385621185950025 2.7741210001733068 3.3858457999940987 L 3.435289835160052 3.3858457999940987 C 3.463538421304117 3.3861873051356586 3.4862589532973174 3.409184172312225 3.4862589532973174 3.437434822656958 C 3.4862589532973174 3.4656854730016913 3.463538421304117 3.4886823401782587 3.435289835160052 3.4890238453198177 Z" fill="#9ea2de" transform="matrix(1,0,0,1,0,0)" fill-rule="nonzero"></path></g><g clip-path="url(&quot;#SvgjsClipPath1008&quot;)"><path d=" M 1.0583421086231029 3.5495132466824955 L 1.0583421086231029 3.0977690784851184 L 1.3545841076686382 3.0977690784851184 L 1.3545841076686382 3.582702121766443 C 1.3890597239340923 3.587140373576094 1.423449892542962 3.5917872181944652 1.4577546134952468 3.5966426556215585 L 1.4577546134952468 2.99460611215762 L 0.955171602796494 2.99460611215762 L 0.955171602796494 3.5402321232776024 C 0.9896371663964676 3.543137343601474 1.024027335005337 3.546231051403105 1.0583421086231029 3.5495132466824955 Z" fill="#9ea2de" transform="matrix(1,0,0,1,0,0)" fill-rule="nonzero"></path></g><g clip-path="url(&quot;#SvgjsClipPath1008&quot;)"><path d=" M 1.2064631081458708 2.9126894543232074 C 1.1435059907748122 2.9126925037585556 1.0867464827825382 2.874769995455604 1.0626524283385208 2.816605786723592 C 1.0385583738945032 2.7584415779915807 1.0518749012446567 2.6914906371255625 1.0963923059139111 2.6469732324563084 C 1.1409097105831651 2.602455827787054 1.2078606514491834 2.589139300436901 1.2660248601811952 2.613233354880918 C 1.3241890689132065 2.6373274093249357 1.362111577216158 2.6940869173172097 1.3621085277808098 2.757044034688268 C 1.3620088148113239 2.842963289975411 1.2923823634330296 2.9125897413537123 1.2064631081458785 2.9126894543232074 Z M 1.2064631081458708 2.704599278876379 C 1.185238986710753 2.704599278876379 1.1661047289477846 2.7173843811660356 1.15798260930806 2.736992912555475 C 1.149860489668336 2.7566014439449145 1.1543500205583221 2.779171839889261 1.1693577407498208 2.7941795600807593 C 1.1843654609413192 2.809187280272258 1.2069358568856658 2.813676811162244 1.226544388275105 2.80555469152252 C 1.2461529196645444 2.7974325718827955 1.2589380219542015 2.7782983141198265 1.2589380219542015 2.7570741926847093 C 1.258921405515868 2.728095100314736 1.2354421861858598 2.7046023871805076 1.2064631081458799 2.7045691208799374 Z" fill="#9ea2de" transform="matrix(1,0,0,1,0,0)" fill-rule="nonzero"></path></g><g clip-path="url(&quot;#SvgjsClipPath1008&quot;)"><path d=" M 3.182701535963688 0.8898795405004964 C 3.170943557986643 0.8815263420580977 3.157709658657822 0.8754760478549928 3.1436997070656285 0.8720486251044189 C 3.1378726125796454 0.8705264051302571 3.1319547751326646 0.8693755746139719 3.125981884156206 0.8686030740109695 C 3.1252061187382445 0.862627661005653 3.124052781208118 0.8567073628979532 3.1225287935636468 0.8508777116024374 C 3.119099500227331 0.8368720764036357 3.113052086506199 0.8236414402929358 3.104705417666679 0.811883422203488 C 3.0963537119074 0.8236394960842649 3.090303509733779 0.836870635890593 3.086874502270601 0.8508777116024372 C 3.0853603844304485 0.8566913698648292 3.08420964202258 0.8625936460224719 3.0834289511771513 0.868550297517197 C 3.077453952763118 0.8693216387427412 3.0715336922023497 0.8704699325818352 3.06570358876862 0.8719883091115356 C 3.0516834817232814 0.8754107684780653 3.0384475138787304 0.8814836516364408 3.0267092993696703 0.8898795405004967 C 3.038446036553851 0.8982763164276206 3.0516826806573945 0.9043469505756495 3.0657035887686193 0.9077632323903471 C 3.0715182680189534 0.9092822389459181 3.0774235203770686 0.9104305524108649 3.08338371418249 0.9112012439846863 C 3.0841562019725197 0.9171605827704109 3.0853019447766874 0.9230655649149667 3.0868141862777185 0.9288813693985565 C 3.090236645644248 0.9429014764438947 3.0963095288026232 0.9561374442884448 3.104705417666679 0.9678756587975055 C 3.113102193593803 0.9561389216133249 3.119172827741832 0.9429022775097816 3.1225891095565292 0.9288813693985564 C 3.1241106522182664 0.9230490270775252 3.1252614703873367 0.9171262167194215 3.126034660649979 0.9111484674909133 C 3.131989435133552 0.9103715136477128 3.1378894354287916 0.9092207240041259 3.1436997070656285 0.9077029163974643 C 3.157708217449644 0.9042752053267883 3.1709416124298597 0.8982276998689828 3.182701535963688 0.8898795405004964 Z" fill="#9ea2de" transform="matrix(1,0,0,1,0,0)" fill-rule="nonzero"></path></g><g clip-path="url(&quot;#SvgjsClipPath1008&quot;)"><path d=" M 3.045671139632307 1.3289347316950837 C 3.0339124311741714 1.3205827995758468 3.020678782531324 1.314532619981736 3.0066693107342473 1.3111038162990056 C 3.000841393891688 1.3095833950347826 2.9949238300665377 1.3084300996169447 2.9889514878248264 1.307650725706446 C 2.9881721139143265 1.301678383464734 2.9870188184964888 1.2957608196395831 2.985498397232265 1.289932902797023 C 2.9820682141450456 1.2759239103422462 2.9760181489741835 1.2626905119790888 2.9676674818361883 1.2509310738989645 C 2.959322006315815 1.2626925445800652 2.9532747433023467 1.275925409033818 2.94984410593922 1.289932902797024 C 2.9483262798576666 1.2957457169217708 2.9471754919368127 1.301648226520201 2.946398554845771 1.3076054887117838 C 2.9404234408614767 1.3083761135828609 2.934503135247889 1.3095244161604005 2.9286731924372393 1.3110435003061223 C 2.914650693418649 1.314465761194946 2.901412218155185 1.3205386206189167 2.889671363539179 1.3289347316950835 C 2.9014142958454356 1.3373255970076434 2.914652220139696 1.3433956446446018 2.928673192437239 1.3468184235849343 C 2.934485328329783 1.3483374143026676 2.9403880716394135 1.3494857295540292 2.946345778351998 1.3502564351792732 C 2.9471200970790217 1.3562135567867608 2.9482683681738933 1.3621160731165418 2.9497837899463373 1.367929021094033 C 2.9532065688866695 1.381949993391575 2.9592766165236277 1.3951879176858357 2.967667481836188 1.4069308499920918 C 2.9760635929123547 1.395189995376086 2.9821364523363254 1.3819515201126225 2.9855587132251493 1.3679290210940325 C 2.9870777973708704 1.3620990782833826 2.9882260999484105 1.3561787726697947 2.988996724819488 1.3502036586855006 C 2.994954102169979 1.3494274302794989 3.000856656104109 1.3482766337146965 3.0066693107342473 1.346758107592051 C 3.020677282653401 1.343328846451319 3.033910396539138 1.3372814694503752 3.045671139632307 1.3289347316950837 Z" fill="#9ea2de" transform="matrix(1,0,0,1,0,0)" fill-rule="nonzero"></path></g><g clip-path="url(&quot;#SvgjsClipPath1008&quot;)"><path d=" M 2.3392577704840973 1.3289347316950837 C 2.327499792507053 1.3205815332526847 2.314265893178232 1.3145312390495798 2.3002559415860384 1.3111038162990056 C 2.2944280247434783 1.3095833950347826 2.288510460918328 1.3084300996169447 2.2825381186766167 1.307650725706446 C 2.2817587447661176 1.301678383464734 2.2806054493482795 1.2957608196395831 2.279085028084056 1.289932902797023 C 2.2756543907209297 1.275925409033818 2.269607127707461 1.2626925445800652 2.261261652187089 1.2509310738989645 C 2.2529109850490925 1.2626905119790888 2.2468609198782308 1.2759239103422462 2.243430736791011 1.289932902797024 C 2.2419129107094573 1.2957457169217708 2.240762122788603 1.301648226520201 2.239985185697561 1.3076054887117838 C 2.234010187283528 1.3083768299373282 2.228089926722759 1.309525123776422 2.222259823289029 1.3110435003061223 C 2.208237875312146 1.3144673453169773 2.194999690258344 1.3205400716136468 2.18325799439097 1.3289347316950835 C 2.1950016724294112 1.33732430997521 2.208239339615418 1.3433942397191128 2.222259823289029 1.3468184235849343 C 2.2280745025393633 1.348337430140505 2.233979754897478 1.3494857436054517 2.2399399487028986 1.350256435179273 C 2.2407117865902326 1.3562133938771326 2.241857539184603 1.3621159083413166 2.243370420798128 1.3679290210940325 C 2.246792681686952 1.3819515201126225 2.252865541110922 1.395189995376086 2.2612616521870894 1.4069308499920923 C 2.2696525174996487 1.3951879176858357 2.275722565136607 1.381949993391575 2.2791453440769396 1.3679290210940325 C 2.2806668700835355 1.362099221817055 2.281817690016436 1.3561789205867476 2.282590895170389 1.3502036586855004 C 2.288545669653962 1.3494267048422997 2.2944456699492015 1.3482759151987127 2.3002559415860384 1.346758107592051 C 2.3142644519700544 1.3433303965213752 2.32749784695027 1.33728289106357 2.3392577704840973 1.3289347316950837 Z" fill="#9ea2de" transform="matrix(1,0,0,1,0,0)" fill-rule="nonzero"></path></g><g clip-path="url(&quot;#SvgjsClipPath1008&quot;)"><path d=" M 3.7726296438563356 1.6109496959193088 C 3.7608750952763654 1.6025970113594543 3.7476432682427143 1.5965490532953497 3.7336353544573866 1.5931263200223413 C 3.72780570316187 1.5916023323778699 3.7218854050541705 1.5904489948477436 3.715909992048854 1.5896732294297815 C 3.7151367868949023 1.5836979675285345 3.713985966962001 1.5777776662982277 3.7124644409554053 1.5719478670212501 C 3.709035433492226 1.5579407913094048 3.702985231318606 1.544709651503077 3.694633525559327 1.5329535776222998 C 3.686286856719807 1.5447115957117479 3.6802394429986753 1.5579422318224478 3.67681014966236 1.5719478670212492 C 3.6752930209754164 1.5777608399939094 3.6741422416494043 1.583663305508508 3.6733645985689107 1.5896204529360092 C 3.66738862996128 1.5903892832348094 3.661468051792392 1.5915401570005183 3.655639236160378 1.5930660040294582 C 3.6416154452273135 1.596480674094253 3.628376034360428 1.6025514033763428 3.6166374072623184 1.6109496959193088 C 3.628377138457605 1.6193477443758442 3.641616001500301 1.6254207816850106 3.655639236160378 1.62884092730827 C 3.6614523489130946 1.630353808921795 3.667354863377278 1.6314995615161652 3.6733118220751377 1.6322713994034983 C 3.6740825136489588 1.638231593208919 3.6752308271139063 1.644136845567034 3.6767498336694766 1.6499515248173684 C 3.6801661154841745 1.6639724329285939 3.686236749632203 1.677209077032137 3.6946335255593277 1.6889458142163176 C 3.703029414423384 1.677207599707257 3.70910229758176 1.663971631862707 3.7125247569482887 1.6499515248173684 C 3.714043838019042 1.6441190345401564 3.7151921385922653 1.6381962210572176 3.715962768542627 1.6322186229097253 C 3.7219206235157682 1.6314453366403237 3.7278233624065282 1.6302945040152905 3.7336353544573866 1.6287730718162763 C 3.747643268242715 1.625350338543268 3.7608750952763654 1.6193023804791633 3.7726296438563365 1.610949695919309 Z" fill="#9ea2de" transform="matrix(1,0,0,1,0,0)" fill-rule="nonzero"></path></g><g clip-path="url(&quot;#SvgjsClipPath1008&quot;)"><path d=" M 2.6203830738132967 0.5271391593013006 C 2.608626999932519 0.5187874535420213 2.595395860126191 0.5127372513684006 2.5813887844143473 0.5093082439052228 C 2.5755606920482896 0.5077885937674335 2.569643176847953 0.5066353078262615 2.5636709615049256 0.5058551533126633 C 2.562891587594426 0.49988281107095106 2.561738292176588 0.4939652472458003 2.5602178709123646 0.4881373304032401 C 2.556787687825145 0.4741283379484634 2.550737622654283 0.4608949395853059 2.5423869555162875 0.44913550150518183 C 2.5340414799959143 0.4608969721862825 2.527994216982446 0.47412983664003516 2.5245635796193198 0.4881373304032413 C 2.5230450534966744 0.4939499850333801 2.521894256931872 0.49985253896750964 2.5211180285258705 0.5058099163180012 C 2.5151428017993456 0.5065798420995813 2.50922245213655 0.5077281532209063 2.5033926661173385 0.5092479279123396 C 2.4893694314572614 0.5126680735355992 2.476130568414565 0.5187411108447655 2.464390837219279 0.5271391593013006 C 2.476132929517369 0.535531474171577 2.4893711435617876 0.5416016546690369 2.5033926661173385 0.5450228511911513 C 2.5092057788700544 0.5465357328046765 2.5151082933342384 0.5476814853990466 2.5210652520320984 0.5484533232863799 C 2.521835281445804 0.5544136241535143 2.5229836030424666 0.5603189183293371 2.524503263626437 0.5661334487002495 C 2.527919347681892 0.5801567483255149 2.533989957954892 0.5933958996502318 2.5423869555162875 0.6051352775983094 C 2.5507830665924542 0.5933944229823033 2.5568559260164245 0.5801559477188396 2.5602781869052484 0.5661334487002498 C 2.56179727105097 0.5603035058895999 2.56294557362851 0.5543832002760122 2.5637161984995873 0.548408086291718 C 2.56967346069117 0.547631149200676 2.575575970289601 0.5464803612798216 2.5813887844143473 0.5449625351982682 C 2.5953944196131484 0.5415332418619531 2.608625055723848 0.535485828140821 2.6203830738132967 0.5271391593013007 Z" fill="#9ea2de" transform="matrix(1,0,0,1,0,0)" fill-rule="nonzero"></path></g><g clip-path="url(&quot;#SvgjsClipPath1008&quot;)"><path d=" M 2.2612616521870894 0.9678756587975053 C 2.24950090909392 0.9595289210422137 2.2362677952081835 0.9534815440412701 2.2222598232890296 0.9500522829005377 C 2.2164327151355887 0.9485283118427108 2.21051492614886 0.9473749725423186 2.204542000379608 0.9465991923079783 C 2.203763272947099 0.9406267450114232 2.2026099696659522 0.9347091408396004 2.201088909787048 0.9288813693985559 C 2.1976614870364735 0.9148714178063622 2.191611192833369 0.9016375184775411 2.18325799439097 0.8898795405004964 C 2.174909835022484 0.9016394640343247 2.168862329564678 0.9148728590145399 2.1654346184940025 0.9288813693985561 C 2.1639168108873403 0.9346916410353933 2.1627660212437534 0.9405916413306323 2.1619890674005533 0.9465464158142053 C 2.1560039913901226 0.9473134035714822 2.1500735820957297 0.948459193902246 2.144233546995579 0.9499768879094338 C 2.130210247370314 0.9533929719648893 2.116971096045597 0.9594635822378893 2.1052317180975195 0.9678605797992845 C 2.1169725727135256 0.9762566908754514 2.130211047976989 0.9823295502994219 2.144233546995579 0.9857518111882455 C 2.1500490344410137 0.9872654502312149 2.155954105003453 0.9884112101910909 2.161913672409449 0.9891822832834744 C 2.162685454198026 0.9951417361832201 2.163831205555621 1.0010467624108257 2.1653441445046777 1.0068624086973441 C 2.1687683283704993 1.020882892370955 2.174838258114402 1.0341205595569625 2.1832278363945283 1.0458642375954037 C 2.191622496475965 1.0341225417280293 2.1976952227726345 1.0208843566742276 2.2011190677834893 1.0068624086973441 C 2.202638148854243 1.0010299184201321 2.2037864494274664 0.9951071049371932 2.204557079377828 0.9891295067897011 C 2.210514309517791 0.9883558577387896 2.2164168677532543 0.9872075784916177 2.2222296652925877 0.9856914951953627 C 2.2362485957539735 0.9822708675590504 2.24949271169769 0.976225697388101 2.2612616521870894 0.9678756587975053 Z" fill="#9ea2de" transform="matrix(1,0,0,1,0,0)" fill-rule="nonzero"></path></g><g clip-path="url(&quot;#SvgjsClipPath1008&quot;)"><path d=" M 1.431886592047491 1.2509310738989645 C 1.4201266685136629 1.2425829145304783 1.4068932735334478 1.236535409072673 1.3928847631494314 1.233107698001997 C 1.3870569917083868 1.2315866381230927 1.3811393875365643 1.2304333348419458 1.3751669402400095 1.2296546074094374 C 1.3743911600056689 1.223681681640185 1.3732378207052767 1.217763892653457 1.3717138496474497 1.211936784500016 C 1.368286138576774 1.1979282741159993 1.3622386331189684 1.184694879135784 1.3538904737504822 1.172934955601956 C 1.3455372753080834 1.1846929335790009 1.3394869811049785 1.1979268329078219 1.3360595583544044 1.2119367845000153 C 1.3345453474574762 1.21774787525171 1.333394602000558 1.2236476490056702 1.3326140072609551 1.2296018309156649 C 1.3266394533257782 1.230379408515739 1.3207194257039472 1.2315301752631556 1.3148886448524233 1.2330473820091137 C 1.3008700038685463 1.2364701842780597 1.2876345549796102 1.2425402702727535 1.2758943554534738 1.2509310738989643 C 1.2876325699625344 1.2593269627630204 1.3008685378070846 1.2653998459213955 1.314888644852423 1.2688223052879253 C 1.3207042911389415 1.2703352442369822 1.326609317366547 1.2714809955945774 1.3325687702662932 1.272252777383154 C 1.3333398433586763 1.2782123447891496 1.3344856033185524 1.2841174153515884 1.3359992423615212 1.2899329027970232 C 1.3394230873723763 1.3039548507739074 1.3454958136690458 1.317193035827709 1.3538904737504824 1.3289347316950835 C 1.3622858545362269 1.3171944164413099 1.3683563163221844 1.3039555889460488 1.3717741656403328 1.2899329027970239 C 1.3732956916469288 1.284103103520046 1.3744465115798299 1.278182802289739 1.375219716733782 1.2722075403884918 C 1.3811738986437765 1.2714269456488887 1.387073672397737 1.27027620019197 1.3928847631494314 1.2687619892950421 C 1.4068947147416253 1.2653345665444684 1.420128614070446 1.2592842723413635 1.431886592047491 1.2509310738989645 Z" fill="#9ea2de" transform="matrix(1,0,0,1,0,0)" fill-rule="nonzero"></path></g><g clip-path="url(&quot;#SvgjsClipPath1008&quot;)"><path d=" M 1.9291391768751966 0.6051352775983093 C 1.9173861079347507 0.5967881509081855 1.9041568591067013 0.5907453186258702 1.8901524269753576 0.5873269806995627 C 1.8843256245024445 0.5857998577065715 1.8784077946066922 0.5846439922077841 1.8724346040659354 0.5838663506078925 C 1.8716581074858678 0.577893541067236 1.8705047769661973 0.5719757971344285 1.8689815134733758 0.5661485276984705 C 1.8655522201370607 0.5521428924996693 1.8595048064159285 0.5389122563889693 1.8511581375764083 0.5271542382995216 C 1.842806431817129 0.5389103121802984 1.8367562296435083 0.5521414519866266 1.8333272221803305 0.5661485276984708 C 1.831813104340178 0.5719621859608628 1.8306623619323101 0.5778644621185054 1.8298816710868813 0.5838211136132305 C 1.8239066726728472 0.5845924548387749 1.8179864121120797 0.585740748677869 1.8121563086783494 0.5872591252075692 C 1.7981362016330105 0.5906815845740988 1.7849002337884603 0.5967544677324743 1.7731620192794002 0.6051503565965303 C 1.7848987564635803 0.6135471325236543 1.798135400567124 0.6196177666716832 1.812156308678349 0.6230340484863809 C 1.817970987928683 0.6245530550419515 1.8238762402867976 0.6257013685068984 1.8298364340922184 0.6264720600807195 C 1.830608271979552 0.6324290187785794 1.8317540245739223 0.6383315332427631 1.8332669061874474 0.6441446459954788 C 1.8366870518107068 0.6581678806555565 1.8427600891198732 0.6714067436982527 1.8511581375764083 0.683146474893539 C 1.8595564301193748 0.6714078477954292 1.8656271594014642 0.6581684369285442 1.869041829466259 0.6441446459954794 C 1.8705640654573839 0.6383150082259094 1.8717148941925548 0.632394661713027 1.8724873805597084 0.6264192835869472 C 1.878442155043281 0.6256423297437465 1.8843421553385205 0.6244915401001594 1.8901524269753576 0.6229737324934977 C 1.9041567494903302 0.6195396355514331 1.9173849459113619 0.6134870513835426 1.9291391768751966 0.6051352775983093 Z" fill="#9ea2de" transform="matrix(1,0,0,1,0,0)" fill-rule="nonzero"></path></g><g clip-path="url(&quot;#SvgjsClipPath1008&quot;)"><path d=" M 0.8403374918461085 1.2018715531876416 C 0.828578480206588 1.1935218122597793 0.8153447722972833 1.1874741637970696 0.801335662948049 1.1840481772906744 C 0.7955085547946079 1.1825242062328472 0.7895907658078798 1.1813708669324552 0.7836178400386274 1.1805950866981145 C 0.7828384054865368 1.1746202692295384 0.7816851127199055 1.168700200901263 0.7801647494460674 1.162869724289582 C 0.7767354561097519 1.1488640890907809 0.7706880423886199 1.135633452980081 0.7623413735490999 1.1238754348906332 C 0.7539896677898206 1.13563150877141 0.7479394656161998 1.1488626485777382 0.7445104581530219 1.162869724289582 C 0.7429933294660788 1.168682697262242 0.741842550140067 1.1745851627768409 0.7410649070595727 1.1805423102043417 C 0.7350903859410849 1.1813166070142846 0.7291703103605778 1.1824648649746041 0.7233395446510411 1.1839803217986802 C 0.7093175966741571 1.1874041668095352 0.6960794116203552 1.1934768931062048 0.6843377157529809 1.2018715531876414 C 0.6960794116203552 1.210266213269078 0.7093175966741571 1.2163389395657476 0.7233395446510404 1.2197627845766026 C 0.7291550320964751 1.2212764236195714 0.735060102658914 1.2224221835794478 0.7410196700649102 1.223193256671831 C 0.7417914518534873 1.2291527095715769 0.7429372032110823 1.2350577357991823 0.7444501421601389 1.2408733820857007 C 0.7478726015266686 1.2548934891310395 0.753945484685044 1.2681294569755897 0.7623413735490999 1.2798676714846504 C 0.770732177175311 1.2681274719585136 0.7768022631700047 1.2548920230695777 0.7802250654389504 1.2408733820857012 C 0.781742985123575 1.2350402166607048 0.7828937586749187 1.229117635932563 0.7836706165323999 1.223140480178058 C 0.7896253910159728 1.2223635263348576 0.7955253913112119 1.2212127366912706 0.801335662948049 1.219694929084609 C 0.8153459122812069 1.2162722258340068 0.8285802165072911 1.210224304861561 0.8403374918461085 1.2018715531876416 Z" fill="#9ea2de" transform="matrix(1,0,0,1,0,0)" fill-rule="nonzero"></path></g><g clip-path="url(&quot;#SvgjsClipPath1008&quot;)"><path d=" M 0.5363071902195377 1.7214636738794393 C 0.5245491721300899 1.7131170050399194 0.51131853601939 1.7070695913187874 0.49731290082058854 1.703640297982472 C 0.49148324952507266 1.7021163103380008 0.4855629514173726 1.7009629728078746 0.479587538412056 1.7001872073899127 C 0.47881177299409433 1.6942117943845958 0.47765843546396813 1.6882914962768956 0.47613444781949654 1.6824618449813795 C 0.4727051544831813 1.6684562097825788 0.46665774076204924 1.6552255736718788 0.45831107192252907 1.6434675555824307 C 0.44995936616324983 1.6552236294632081 0.4439091639896292 1.668454769269536 0.4404801565264513 1.6824618449813802 C 0.43896664633210825 1.6882756414495486 0.43781591133796216 1.6941778795814488 0.4370346054330019 1.7001344308961395 C 0.43105945935695816 1.7009083520914874 0.4251392031509124 1.702059163272331 0.41930924302447 1.7035799819895887 C 0.40528919392063006 1.706998734972761 0.39205300312647234 1.7130691612225175 0.3803149536255204 1.7214636738794393 C 0.3920531681345809 1.7298595627434952 0.4052891359791311 1.7359324459018703 0.41930924302446965 1.7393549052684003 C 0.42512488931098824 1.740867844217457 0.4310299155385939 1.7420135955750522 0.43698936843834 1.742785377363629 C 0.4377611502269163 1.7487448302633748 0.4389069015845114 1.7546498564909803 0.44041984053356803 1.7604655027774987 C 0.4438422999000978 1.7744856098228377 0.4499151830584732 1.7877215776673876 0.4583110719225292 1.7994597921764484 C 0.4667069790684731 1.7877253204738885 0.472777577618708 1.774491313263406 0.4761947638123797 1.7604730422766095 C 0.47771558252963753 1.754643082150167 0.47886639371048084 1.7487228259441214 0.47964031490582887 1.7427476798680777 C 0.4855968662205195 1.741966373963117 0.4914991043524195 1.7408156389689706 0.497312900820588 1.739302128774628 C 0.5113205189175806 1.735870821882144 0.5245516934295242 1.7298180456069583 0.5363071902195377 1.7214636738794393 Z" fill="#9ea2de" transform="matrix(1,0,0,1,0,0)" fill-rule="nonzero"></path></g><g clip-path="url(&quot;#SvgjsClipPath1008&quot;)"><path d=" M 1.227649100646073 0.7692701732315504 C 1.2158910825566251 0.7609235043920303 1.2026604464459252 0.7548760906708982 1.1886548112471238 0.7514467973345829 C 1.182824334635443 0.7499264340607446 1.1769042663071678 0.7487731412941133 1.1709294488385915 0.7479937067420231 C 1.1701543676860955 0.7420206675879569 1.1690010198005687 0.7361028345508653 1.167476358246032 0.7302758838326011 C 1.1640519258892676 0.7162662348098493 1.158004148473964 0.7030322447212853 1.1496529823490644 0.6912740549345419 C 1.1412988018805754 0.7030305061174916 1.1352507514572339 0.7162650936132384 1.1318296064520967 0.7302758838326013 C 1.1303081900361176 0.7360853324316488 1.1291573556185148 0.7419855622794451 1.1283840553586477 0.7479409302482508 C 1.1224063061301397 0.7487141205108931 1.116483495772036 0.7498649386799634 1.1106511534510046 0.7513864813416998 C 1.0966302453397796 0.7548027631563976 1.0833936012362362 0.7608733973044264 1.0716568640520556 0.7692701732315506 C 1.0833950785611164 0.7776660620956064 1.0966310464056666 0.7837389452539819 1.110651153451005 0.7871614046205115 C 1.1164667997375233 0.788674343569568 1.1223718259651287 0.7898200949271631 1.1283312788648747 0.7905918767157399 C 1.1291030606534518 0.7965513296154864 1.1302488120110472 0.8024563558430919 1.1317617509601037 0.8082720021296107 C 1.1351842103266332 0.8222921091749485 1.1412570934850088 0.8355280770194986 1.1496529823490647 0.8472662915285593 C 1.1580488712131203 0.8355280770194985 1.1641217543714957 0.8222921091749484 1.1675442137380254 0.8082720021296099 C 1.1690625902677256 0.80244189869588 1.1702108841068195 0.7965216381351117 1.1709822253323643 0.7905466397210775 C 1.176938776647055 0.7897653338161174 1.1828410147789548 0.7886145988219713 1.1886548112471234 0.7871010886276284 C 1.202661886958968 0.7836720811644504 1.215893026765296 0.7776218789908298 1.2276491006460732 0.7692701732315504 Z" fill="#9ea2de" transform="matrix(1,0,0,1,0,0)" fill-rule="nonzero"></path></g></g><g transform="matrix(0.8967603725767074,-0.44251647898816715,0.44251647898816715,0.8967603725767074,0.24896985221724988,-0.4456093057169907)"><g clip-path="url(&quot;#SvgjsClipPath1019&quot;)"><path d=" M -0.8349508149832607 -0.5328423082218242 L -0.8261195006975464 -0.5328423082218242 L -0.7985216435546892 -0.69401379393611 L -0.6450775578404035 -0.6366102510789671 L -0.6406619006975464 -0.6443376510789671 L -0.766508129268975 -0.7492095082218242 L -0.6406619006975464 -0.8529774510789669 L -0.6450775578404035 -0.860704851078967 L -0.7985216435546892 -0.8044052225075384 L -0.8261195006975464 -0.9655767082218242 L -0.8349508149832607 -0.9655767082218242 L -0.8625486721261177 -0.8044052225075384 L -1.015992067893975 -0.860704851078967 L -1.020407725036832 -0.8529774510789669 L -0.894562186411832 -0.7492095082218242 L -1.020407725036832 -0.6443376510789671 L -1.015992067893975 -0.6366102510789671 L -0.8625486721261177 -0.69401379393611 L -0.8349508149832607 -0.5328423082218242 Z" fill="#9ea2de" transform="matrix(1,0,0,1,0,0)" fill-rule="nonzero"></path></g></g><g transform="matrix(-0.8967603725767074,-0.44251647898816715,-0.44251647898816715,0.8967603725767074,9.229005449737006,2.1531380849296315)"><g clip-path="url(&quot;#SvgjsClipPath1020&quot;)"><path d=" M 5.037705942543078 -0.5328423082218242 L 5.046537256828793 -0.5328423082218242 L 5.07413511397165 -0.69401379393611 L 5.227579199685936 -0.6366102510789671 L 5.231994856828792 -0.6443376510789671 L 5.106148628257364 -0.7492095082218242 L 5.231994856828792 -0.8529774510789669 L 5.227579199685936 -0.860704851078967 L 5.07413511397165 -0.8044052225075384 L 5.046537256828793 -0.9655767082218242 L 5.037705942543078 -0.9655767082218242 L 5.010108085400221 -0.8044052225075384 L 4.856664689632364 -0.860704851078967 L 4.852249032489507 -0.8529774510789669 L 4.978094571114506 -0.7492095082218242 L 4.852249032489507 -0.6443376510789671 L 4.856664689632364 -0.6366102510789671 L 5.010108085400221 -0.69401379393611 L 5.037705942543078 -0.5328423082218242 Z" fill="#9ea2de" transform="matrix(1,0,0,1,0,0)" fill-rule="nonzero"></path></g></g></g><defs><clipPath id="SvgjsClipPath1018"><path d=" M 0 0 h 4.211609440059819 v 5.438662920276172 h -4.211609440059819 Z"></path></clipPath><clipPath id="SvgjsClipPath1008"><path d=" M 0 0 L 4.211609440059819 0 L 4.211609440059819 5.438662920276172 L 0 5.438662920276172 Z"></path></clipPath><clipPath id="SvgjsClipPath1019"><path d=" M -1.1524986587332606 -1.078359951078967 h 0.6439499999999999 v 0.6439499999999999 h -0.6439499999999999 Z"></path></clipPath><clipPath id="SvgjsClipPath1020"><path d=" M 4.720158098793078 -1.078359951078967 h 0.6439499999999999 v 0.6439499999999999 h -0.6439499999999999 Z"></path></clipPath></defs></svg>